<?xml version="1.0" encoding="UTF-8" standalone="no"?>
<svg
   width="1024"
   height="1024"
   viewBox="0 0 1024 1024"
   version="1.1"
   id="svg4"
   sodipodi:docname="playlist-app.svg"
   inkscape:version="1.4 (e7c3feb1, 2024-10-09)"
   inkscape:export-filename="playlist-app3.png"
   inkscape:export-xdpi="96"
   inkscape:export-ydpi="96"
   xmlns:inkscape="http://www.inkscape.org/namespaces/inkscape"
   xmlns:sodipodi="http://sodipodi.sourceforge.net/DTD/sodipodi-0.dtd"
   xmlns="http://www.w3.org/2000/svg"
   xmlns:svg="http://www.w3.org/2000/svg">
  <defs
     id="defs4" />
  <sodipodi:namedview
     id="namedview4"
     pagecolor="#ffffff"
     bordercolor="#000000"
     borderopacity="0.25"
     inkscape:showpageshadow="2"
     inkscape:pageopacity="0.0"
     inkscape:pagecheckerboard="0"
     inkscape:deskcolor="#d1d1d1"
     inkscape:zoom="0.85742188"
     inkscape:cx="513.16628"
     inkscape:cy="580.81093"
     inkscape:window-width="1768"
     inkscape:window-height="761"
     inkscape:window-x="93"
     inkscape:window-y="37"
     inkscape:window-maximized="0"
     inkscape:current-layer="svg4"
     inkscape:export-bgcolor="#ffffff51" />
  <g
     id="g1"
     transform="matrix(1.3359422,0,0,1.376966,-172.33625,-192.77524)">
    <path
       d="m 594.9,429.93 c -3.02,0.65 -18.73,1.06 -39.7,1.06 l -34.7,-0.02 -7,-3.84 c -3.85,-2.11 -9.25,-5.22 -12,-6.9 -2.75,-1.69 -9.27,-5.53 -14.5,-8.54 -15.41,-8.88 -46.22,-26.74 -50,-28.98 -1.92,-1.14 -6.2,-3.59 -9.5,-5.45 -3.3,-1.85 -4.92,-3.07 -3.6,-2.7 2.09,0.58 2.22,0.48 1,-0.84 -0.77,-0.83 -1.81,-1.26 -2.3,-0.96 -0.5,0.3 -0.59,0.04 -0.2,-0.59 0.51,-0.84 23.27,-1.08 86.9,-0.9 l 86.2,0.23 4.5,2.34 c 8.79,4.58 11.99,9.27 13.9,20.38 3.05,17.81 -4.86,32.68 -19,35.71 z m -84.4,-5.88 8,4.74 38.28,0.11 c 41.74,0.11 42.54,0.02 48.56,-5.7 5.22,-4.96 7,-9.79 7.44,-20.2 0.62,-14.54 -3.32,-23.18 -12.78,-28 -3.83,-1.95 -5.89,-2 -87.21,-1.98 -75.3,0.01 -87.75,0.35 -85.76,2.34 0.44,0.44 12.1,7.26 34.47,20.17 18.33,10.57 41.23,23.9 49,28.52 z M 259.75,551.01 c -5.64,0.01 -11.15,0.17 -12.25,0.37 -3.7,0.64 -14.97,-0.99 -17.81,-2.58 -6.86,-3.85 -10.69,-13.57 -10.69,-27.17 0,-15.03 5.06,-24.09 15.14,-27.08 5.26,-1.56 30.83,-2.27 34.28,-0.94 1.39,0.53 1.58,4.03 1.58,29 V 551 Z m -26.58,-1.73 c 1.28,0.25 9.87,0.51 19.08,0.58 L 269,550 v -55.16 l -17.75,0.33 c -21.42,0.4 -23.08,1.01 -27.71,10.26 -2.69,5.38 -2.96,6.82 -2.95,15.99 0,5.54 0.62,12.3 1.39,15.01 1.53,5.47 7.32,12.12 11.19,12.85 z m 37.01,118.97 -0.31,2.75 -16.19,-0.01 c -15,-0.01 -16.56,-0.19 -21.37,-2.43 -9.89,-4.6 -13.92,-13.86 -13.14,-30.17 0.33,-6.81 1,-10.05 2.88,-13.86 2.21,-4.49 7.63,-9.53 10.25,-9.53 0.55,0 -0.52,1.02 -2.38,2.27 -5.05,3.41 -7.61,7.97 -8.96,15.94 -2.01,11.95 0.04,23.44 5.24,29.37 5.46,6.21 7.48,6.77 26.05,7.23 L 269,670.23 V 615 l -17.75,-0.06 c -12.41,-0.05 -17.03,-0.36 -15.35,-1.03 1.33,-0.53 9.43,-0.84 18,-0.68 l 15.6,0.27 0.5,26 c 0.27,14.3 0.36,27.24 0.18,28.75 z"
       fill="#09161e"
       id="path1" />
    <path
       d="m 796.5,881.19 -8,2.26 -273.5,0.17 c -233.93,0.15 -274.59,-0.04 -281,-1.26 -7.68,-1.47 -19.14,-4.68 -24.5,-6.85 -8.16,-3.31 -13.5,-5.93 -13.5,-6.62 0,-0.42 -1.57,-1.33 -3.5,-2.03 -1.93,-0.69 -3.5,-1.62 -3.5,-2.06 0,-0.44 -0.68,-0.8 -1.5,-0.8 -0.82,0 -1.5,-0.45 -1.5,-1 0,-0.55 -0.69,-1 -1.53,-1 -0.84,0 -1.79,-0.67 -2.11,-1.5 -0.31,-0.83 -1.04,-1.5 -1.6,-1.5 -0.57,0 -2.06,-1.01 -3.32,-2.25 -1.26,-1.24 -5.56,-5.4 -9.55,-9.25 -3.99,-3.85 -7.18,-7.33 -7.08,-7.73 0.09,-0.4 -1.15,-1.7 -2.78,-2.91 -1.62,-1.2 -2.74,-2.53 -2.47,-2.95 0.26,-0.43 -0.43,-1.41 -1.54,-2.18 -1.1,-0.78 -1.72,-1.7 -1.37,-2.05 0.35,-0.35 -0.1,-0.92 -1,-1.26 -0.9,-0.35 -1.39,-1.04 -1.08,-1.53 0.31,-0.5 -0.14,-1.17 -1,-1.5 -0.86,-0.33 -1.35,-0.93 -1.1,-1.34 0.25,-0.41 -0.4,-1.67 -1.44,-2.79 -1.05,-1.13 -1.64,-2.32 -1.3,-2.65 0.33,-0.34 0,-0.61 -0.73,-0.61 -0.73,0 -1.05,-0.28 -0.71,-0.62 0.58,-0.59 -3.83,-10.3 -5.17,-11.38 -0.34,-0.28 -0.77,-1.4 -0.96,-2.5 -0.19,-1.1 -0.73,-2.14 -1.2,-2.31 -0.46,-0.18 -0.6,-0.97 -0.3,-1.75 0.31,-0.79 0.07,-1.44 -0.52,-1.44 -0.59,0 -0.82,-0.67 -0.5,-1.5 0.31,-0.83 0.08,-1.5 -0.53,-1.5 -0.61,0 -1.06,-0.34 -0.99,-0.75 0.06,-0.41 0.03,-0.97 -0.07,-1.25 -0.1,-0.28 -0.39,-2.08 -0.63,-4 -0.25,-1.92 -0.85,-3.63 -1.33,-3.8 -0.48,-0.16 -0.65,-1.17 -0.37,-2.25 0.28,-1.07 0.02,-1.95 -0.58,-1.95 -0.68,0 -0.86,-1.13 -0.49,-3 0.38,-1.88 0.19,-3 -0.5,-3 -0.69,0 -0.88,-1.12 -0.5,-3 0.33,-1.65 0.21,-3.56 -0.28,-4.25 -0.89,-1.28 -0.01,-514.71 0.9,-520.25 0.27,-1.65 0.81,-3.77 1.2,-4.7 0.39,-0.94 0.42,-2.18 0.06,-2.75 -0.36,-0.58 -0.26,-1.05 0.22,-1.05 0.78,0 3.68,-8.96 3.73,-11.5 0.01,-0.55 0.4,-1.28 0.87,-1.62 0.46,-0.34 0.91,-1.8 1,-3.25 0.08,-1.45 0.56,-2.63 1.07,-2.63 0.5,0 0.63,-0.28 0.29,-0.62 -0.34,-0.34 0.06,-1.3 0.9,-2.13 0.83,-0.83 1.28,-2.09 1.01,-2.8 -0.27,-0.7 0.18,-1.54 1.01,-1.86 0.82,-0.32 1.22,-1.03 0.87,-1.58 -0.34,-0.56 -0.11,-1.01 0.5,-1.01 0.61,0 0.84,-0.45 0.5,-1 -0.34,-0.55 -0.11,-1 0.5,-1 0.61,0 0.84,-0.45 0.5,-1 -0.34,-0.55 -0.11,-1 0.5,-1 0.61,0 0.84,-0.45 0.5,-1 -0.34,-0.55 -0.15,-1 0.42,-1 1.08,0 4.63,-5.97 4.3,-7.22 -0.11,-0.4 0.71,-1.21 1.82,-1.8 1.11,-0.59 1.78,-1.46 1.5,-1.92 -0.29,-0.46 0.6,-1.57 1.96,-2.47 1.37,-0.9 2.42,-1.96 2.34,-2.36 -0.21,-1.01 17.96,-19.23 19.17,-19.23 0.53,0 1.54,-0.9 2.22,-2 0.69,-1.1 1.82,-2 2.51,-2 0.69,0 1.26,-0.45 1.26,-1 0,-0.55 0.68,-1 1.5,-1 0.82,0 1.5,-0.45 1.5,-1 0,-0.55 0.68,-1 1.5,-1 0.82,0 1.5,-0.45 1.5,-1 0,-0.55 0.69,-1 1.54,-1 1.44,0 6.36,-2.7 7.46,-4.09 1.04,-1.31 6.98,-3.91 8.95,-3.91 1.13,0 2.05,-0.45 2.05,-1 0,-0.55 1.12,-1 2.5,-1 1.38,0 2.5,-0.5 2.5,-1.11 0,-0.61 0.68,-0.84 1.5,-0.53 0.82,0.32 1.5,0.09 1.5,-0.5 0,-0.59 0.68,-0.81 1.5,-0.5 0.82,0.32 1.5,0.09 1.5,-0.51 0,-0.59 0.9,-0.85 2,-0.56 1.1,0.29 2,0.08 2,-0.45 0,-0.54 0.9,-0.69 2,-0.34 1.2,0.38 2,0.18 2,-0.5 0,-0.68 0.8,-0.88 2,-0.5 1.21,0.38 2,0.18 2,-0.51 0,-0.76 1.03,-0.92 3,-0.49 1.9,0.42 3,0.26 3,-0.43 0,-0.72 1.39,-0.87 4,-0.45 2.68,0.42 4,0.26 4,-0.49 0,-0.84 69.24,-1.13 266,-1.13 194.43,0 266,0.3 266,1.11 0,0.73 1.21,0.89 3.5,0.46 2.38,-0.45 3.5,-0.29 3.5,0.51 0,0.77 1.03,0.96 3,0.57 1.86,-0.37 3,-0.19 3,0.48 0,0.66 0.99,0.84 2.5,0.46 1.56,-0.39 2.5,-0.2 2.5,0.5 0,0.62 0.67,0.86 1.5,0.55 0.83,-0.32 1.5,-0.11 1.5,0.46 0,0.58 0.88,0.76 2,0.4 1.22,-0.39 2,-0.18 2,0.54 0,0.65 0.67,0.91 1.5,0.6 0.83,-0.32 1.5,-0.09 1.5,0.5 0,0.59 0.67,0.81 1.5,0.5 0.83,-0.32 1.5,-0.11 1.5,0.45 0,0.57 0.45,0.75 1,0.41 0.55,-0.34 1,-0.09 1,0.55 0,0.64 0.67,0.9 1.5,0.59 0.83,-0.32 1.5,-0.14 1.5,0.39 0,0.53 1.12,0.97 2.5,0.97 1.38,0 2.5,0.48 2.5,1.06 0,0.58 0.45,0.78 1,0.44 0.55,-0.34 1,-0.11 1,0.5 0,0.61 0.45,0.84 1,0.5 0.55,-0.34 1,-0.14 1,0.44 0,0.58 0.34,1.01 0.75,0.94 1.84,-0.29 3.13,0.28 5.78,2.56 1.57,1.35 3.21,2.22 3.66,1.94 0.44,-0.27 0.81,0.01 0.81,0.62 0,0.61 0.45,0.84 1.01,0.5 0.55,-0.35 1.27,0.07 1.6,0.93 0.33,0.86 0.96,1.34 1.39,1.07 0.43,-0.27 1.06,0.21 1.39,1.07 0.33,0.86 1.05,1.27 1.61,0.93 0.56,-0.34 1.28,0.08 1.61,0.94 0.33,0.86 1.12,1.56 1.76,1.56 0.63,0 1.72,0.92 2.42,2.04 0.7,1.12 1.6,1.83 2.01,1.59 0.62,-0.39 18.08,16.93 21.57,21.41 5.05,6.46 7.06,9.64 11.48,18.15 5.48,10.53 8.88,19.87 11.78,32.31 1.8,7.7 1.87,17.85 1.87,270.5 0,255.01 -0.05,262.74 -1.91,270.75 -1.06,4.54 -2.23,8.25 -2.62,8.25 -0.39,0 -0.97,1.61 -1.29,3.58 -0.7,4.33 -11.71,27.03 -14.61,30.13 -1.14,1.21 -2.07,2.68 -2.07,3.25 0,0.57 -0.42,1.04 -0.93,1.04 -0.52,0 -1.2,0.83 -1.52,1.84 -0.32,1.01 -5.19,6.41 -10.82,12 -13.96,13.86 -14.29,14.16 -15.59,14.16 -0.62,0 -1.14,0.4 -1.14,0.88 0,0.48 -1.35,1.44 -3,2.12 -1.65,0.68 -3,1.64 -3,2.12 0,0.48 -0.67,0.88 -1.5,0.88 -0.83,0 -1.5,0.42 -1.5,0.93 0,0.52 -0.99,1.25 -2.2,1.63 -1.22,0.39 -2.82,1.32 -3.57,2.07 -0.76,0.75 -2.24,1.37 -3.3,1.37 -1.06,0 -1.93,0.38 -1.93,0.84 0,0.46 -3.26,2.09 -7.25,3.62 -3.99,1.53 -8.15,3.16 -9.25,3.63 -1.1,0.46 -5.6,1.86 -10,3.1 z M 318,676.69 c 0,0.45 2.48,0.87 5.5,0.94 3.03,0.07 5.5,-0.23 5.5,-0.67 0,-0.44 1.44,-1.12 3.19,-1.5 1.76,-0.39 3.82,-1.32 4.57,-2.08 0.76,-0.76 2.03,-1.38 2.81,-1.38 0.79,0 1.43,-0.45 1.43,-1 0,-0.55 0.91,-1 2.03,-1 1.12,0 2.29,-0.67 2.61,-1.5 0.31,-0.83 1.44,-1.5 2.5,-1.5 1.06,0 2.18,-0.67 2.5,-1.5 0.31,-0.83 1.44,-1.5 2.5,-1.5 1.06,0 2.17,-0.63 2.46,-1.41 0.3,-0.78 1.64,-1.68 2.97,-2.02 1.34,-0.33 2.43,-1.05 2.43,-1.59 0,-0.54 0.67,-0.98 1.5,-0.98 0.83,0 1.5,-0.42 1.5,-0.92 0,-0.51 1.58,-1.44 3.5,-2.08 1.92,-0.64 3.5,-1.57 3.5,-2.08 0,-0.5 0.67,-0.92 1.5,-0.92 0.83,0 1.5,-0.45 1.5,-1 0,-0.55 0.61,-1 1.35,-1 0.74,0 2.38,-0.9 3.65,-2 1.27,-1.1 2.91,-2 3.65,-2 0.74,0 1.35,-0.4 1.35,-0.89 0,-0.49 1.12,-1.18 2.5,-1.52 1.38,-0.35 2.5,-1.07 2.5,-1.61 0,-0.54 0.91,-0.98 2.03,-0.98 1.12,0 2.28,-0.63 2.57,-1.41 0.3,-0.78 1.64,-1.68 2.97,-2.02 1.34,-0.33 2.43,-1.05 2.43,-1.59 0,-0.54 0.67,-0.98 1.5,-0.98 0.83,0 1.5,-0.42 1.5,-0.92 0,-0.51 1.58,-1.44 3.5,-2.08 1.92,-0.64 3.5,-1.57 3.5,-2.08 0,-0.5 0.67,-0.92 1.5,-0.92 0.83,0 1.5,-0.42 1.5,-0.93 0,-0.52 0.99,-1.25 2.2,-1.63 1.22,-0.39 2.82,-1.32 3.57,-2.07 0.76,-0.75 2.02,-1.37 2.8,-1.37 0.79,0 1.43,-0.42 1.43,-0.93 0,-0.52 0.99,-1.25 2.2,-1.63 1.22,-0.39 2.82,-1.32 3.57,-2.07 0.76,-0.75 2.02,-1.37 2.8,-1.37 0.79,0 1.43,-0.42 1.43,-0.93 0,-0.52 0.99,-1.25 2.2,-1.63 1.22,-0.39 2.82,-1.32 3.57,-2.07 0.76,-0.75 2.02,-1.37 2.8,-1.37 0.79,0 1.43,-0.42 1.43,-0.93 0,-0.52 0.99,-1.25 2.2,-1.63 1.22,-0.39 2.82,-1.32 3.57,-2.07 0.76,-0.75 2.02,-1.37 2.8,-1.37 0.79,0 1.43,-0.44 1.43,-0.98 0,-0.54 1.12,-1.26 2.5,-1.61 1.38,-0.34 2.5,-1.03 2.5,-1.52 0,-0.49 0.61,-0.89 1.35,-0.89 0.74,0 2.38,-0.9 3.65,-2 1.27,-1.1 2.91,-2 3.65,-2 0.74,0 1.35,-0.45 1.35,-1 0,-0.55 0.61,-1 1.35,-1 0.74,0 2.38,-0.9 3.65,-2 1.27,-1.1 2.91,-2 3.65,-2 0.74,0 1.35,-0.45 1.35,-1 0,-0.55 0.91,-1 2.03,-1 1.12,0 2.29,-0.67 2.61,-1.5 0.31,-0.83 1.44,-1.5 2.5,-1.5 1.06,0 2.18,-0.67 2.5,-1.5 0.31,-0.83 1.33,-1.5 2.24,-1.5 0.92,0 2.45,-0.9 3.39,-2 0.94,-1.1 2.39,-2 3.22,-2 0.83,0 1.51,-0.42 1.51,-0.93 0,-0.52 0.99,-1.25 2.2,-1.63 1.22,-0.39 2.82,-1.32 3.57,-2.07 0.76,-0.75 2.02,-1.37 2.8,-1.37 0.79,0 1.43,-0.45 1.43,-1 0,-0.55 0.67,-1 1.5,-1 0.83,0 1.5,-0.42 1.5,-0.92 0,-0.51 1.58,-1.44 3.5,-2.08 1.92,-0.64 3.5,-1.57 3.5,-2.08 0,-0.5 0.91,-0.92 2.03,-0.92 1.12,0 2.29,-0.67 2.61,-1.5 0.31,-0.83 1.17,-1.5 1.9,-1.5 0.72,0 1.93,-0.62 2.69,-1.37 0.75,-0.75 2.35,-1.68 3.57,-2.07 1.21,-0.38 2.2,-1.11 2.2,-1.63 0,-0.51 0.67,-0.93 1.5,-0.93 0.83,0 1.5,-0.42 1.5,-0.93 0,-0.52 0.99,-1.25 2.2,-1.63 1.22,-0.39 2.82,-1.32 3.57,-2.07 0.76,-0.75 2.02,-1.37 2.8,-1.37 0.79,0 1.43,-0.45 1.43,-1 0,-0.55 0.67,-1 1.5,-1 0.83,0 1.5,-0.42 1.5,-0.92 0,-0.51 1.58,-1.44 3.5,-2.08 1.92,-0.64 3.5,-1.57 3.5,-2.08 0,-0.5 0.67,-0.92 1.5,-0.92 0.83,0 1.5,-0.42 1.5,-0.93 0,-0.52 0.99,-1.25 2.2,-1.63 1.22,-0.39 2.82,-1.32 3.57,-2.07 0.76,-0.75 2.02,-1.37 2.8,-1.37 0.79,0 1.43,-0.44 1.43,-0.98 0,-0.54 1.12,-1.26 2.5,-1.61 1.38,-0.34 2.5,-1.04 2.5,-1.54 0,-0.51 1.17,-1.36 2.6,-1.91 1.42,-0.54 2.83,-1.88 3.11,-2.97 0.29,-1.1 1,-1.99 1.57,-1.99 0.58,0 0.77,-0.28 0.43,-0.62 -0.34,-0.34 0.05,-1.29 0.87,-2.1 0.84,-0.85 1.23,-2.31 0.89,-3.39 -0.34,-1.05 -0.13,-1.89 0.46,-1.89 1.33,0 1.43,-6.66 0.11,-7.47 -0.52,-0.33 -0.7,-1.25 -0.39,-2.06 0.31,-0.81 0.04,-1.47 -0.6,-1.47 -0.64,0 -0.85,-0.52 -0.46,-1.15 0.4,-0.64 -0.11,-1.76 -1.13,-2.5 -1.01,-0.74 -1.5,-1.35 -1.08,-1.35 0.42,0 -0.91,-1.58 -2.95,-3.5 -2.04,-1.92 -4.1,-3.5 -4.57,-3.5 -0.47,0 -0.86,-0.45 -0.86,-1 0,-0.55 -0.61,-1 -1.35,-1 -0.74,0 -3.21,-1.35 -5.49,-3 -2.28,-1.65 -4.6,-3 -5.15,-3 -0.56,0 -1.01,-0.45 -1.01,-1 0,-0.55 -0.61,-1 -1.35,-1 -0.74,0 -2.38,-0.9 -3.65,-2 -1.27,-1.1 -2.84,-2 -3.5,-2 -0.66,0 -2.23,-0.9 -3.5,-2 -1.27,-1.1 -2.91,-2 -3.65,-2 -0.74,0 -1.35,-0.39 -1.35,-0.86 0,-0.47 -2.13,-1.94 -4.72,-3.25 -2.6,-1.31 -5.33,-2.95 -6.08,-3.64 -0.74,-0.69 -1.99,-1.25 -2.77,-1.25 -0.79,0 -1.43,-0.35 -1.43,-0.78 0,-0.43 -1.24,-1.31 -2.75,-1.96 -3.08,-1.33 -6,-3.15 -8.03,-5.01 -0.75,-0.69 -2.01,-1.25 -2.79,-1.25 -0.79,0 -1.43,-0.38 -1.43,-0.84 0,-0.46 -2.59,-2.12 -5.75,-3.7 -3.16,-1.58 -5.98,-3.17 -6.25,-3.53 -0.27,-0.36 -1.51,-0.98 -2.75,-1.36 -1.24,-0.39 -2.25,-1.12 -2.25,-1.64 0,-0.51 -0.61,-0.93 -1.35,-0.93 -0.74,0 -2.38,-0.9 -3.65,-2 -1.27,-1.1 -2.91,-2 -3.65,-2 -0.74,0 -1.35,-0.41 -1.35,-0.9 0,-0.5 -1.24,-1.4 -2.75,-2.01 -1.51,-0.6 -4.1,-1.99 -5.75,-3.09 -1.65,-1.1 -4.24,-2.49 -5.75,-3.09 -1.51,-0.61 -2.75,-1.47 -2.75,-1.91 0,-0.44 -1.24,-1.32 -2.75,-1.96 -4.57,-1.92 -7.25,-3.48 -7.25,-4.2 0,-0.38 -1.58,-1.2 -3.5,-1.84 -1.92,-0.64 -3.5,-1.57 -3.5,-2.08 0,-0.5 -0.64,-0.92 -1.43,-0.92 -0.78,0 -2.04,-0.62 -2.8,-1.37 -0.75,-0.75 -2.35,-1.68 -3.57,-2.07 -1.21,-0.38 -2.2,-1.08 -2.2,-1.55 0,-0.47 -1.58,-1.37 -3.5,-2.01 -1.92,-0.64 -3.5,-1.57 -3.5,-2.08 0,-0.5 -0.61,-0.92 -1.35,-0.92 -0.74,0 -2.38,-0.9 -3.65,-2 -1.27,-1.1 -2.87,-2 -3.57,-2 -0.69,0 -1.41,-0.34 -1.6,-0.75 -0.18,-0.41 -2.53,-1.86 -5.22,-3.22 -2.7,-1.35 -5.41,-2.93 -6.04,-3.5 -0.63,-0.56 -3.71,-2.36 -6.85,-3.99 -3.15,-1.64 -5.72,-3.32 -5.72,-3.75 0,-0.44 -0.64,-0.79 -1.43,-0.79 -0.78,0 -2.1,-0.67 -2.92,-1.5 -0.83,-0.82 -2.55,-1.95 -3.82,-2.52 -1.28,-0.57 -4.13,-2.12 -6.33,-3.46 -2.2,-1.34 -5.24,-2.95 -6.75,-3.58 -1.51,-0.62 -2.75,-1.54 -2.75,-2.04 0,-0.49 -0.64,-0.9 -1.43,-0.9 -0.78,0 -2.04,-0.62 -2.8,-1.37 -0.75,-0.75 -2.35,-1.68 -3.57,-2.07 -1.21,-0.38 -2.2,-1.11 -2.2,-1.63 0,-0.51 -0.67,-0.93 -1.5,-0.93 -0.83,0 -1.5,-0.38 -1.5,-0.85 0,-0.46 -1.69,-1.58 -3.75,-2.48 -5.64,-2.47 -12.71,-6.63 -13.08,-7.71 -0.19,-0.53 -0.91,-0.96 -1.6,-0.96 -0.7,0 -2.3,-0.9 -3.56,-1.99 -4.45,-3.86 -16.52,-5.99 -22.6,-3.98 -4.57,1.51 -8.25,5.04 -10.63,10.2 -1.61,3.46 -1.73,13.87 -1.8,151.5 -0.07,128.03 0.12,148.42 1.41,152.64 1.67,5.46 5.04,9.63 7.78,9.63 1.01,0 1.83,0.48 1.83,1.06 0,0.58 0.45,0.78 1,0.44 0.55,-0.34 1,-0.25 1,0.19 z m -79.25,111.62 c 0.96,0.25 115.1,0.51 253.63,0.57 258.49,0.12 258.92,0.12 260.33,-3.57 0.28,-0.72 1.05,-1.31 1.72,-1.31 1.42,0 6.37,-4.99 4.99,-5.03 -0.5,-0.02 -0.14,-0.49 0.81,-1.04 2.95,-1.72 4.68,-10.39 4.37,-21.88 -0.19,-6.82 -0.69,-10.58 -1.45,-10.83 -0.64,-0.22 -0.87,-0.87 -0.5,-1.46 0.36,-0.58 -0.17,-1.67 -1.19,-2.41 -1.01,-0.74 -1.5,-1.35 -1.08,-1.35 1.25,0 -5.99,-6.36 -9.38,-8.24 -2.96,-1.65 -17.61,-1.75 -258.59,-1.77 -227.22,-0.02 -255.78,0.15 -258.41,1.51 -4.14,2.14 -10.98,9.5 -11.61,12.5 -0.29,1.37 -0.95,3.53 -1.46,4.8 -1.74,4.29 -1.09,17.69 1.14,23.66 1.14,3.05 2.44,5.54 2.89,5.54 0.44,0 1.03,0.86 1.31,1.91 0.58,2.23 8.35,7.45 9.77,6.57 0.53,-0.33 0.96,-0.15 0.96,0.39 0,0.54 0.79,1.19 1.75,1.44 z m 245.5,-476.03 c 137.09,0.16 252.63,0.1 256.75,-0.13 8.03,-0.44 12,-1.48 12,-3.13 0,-0.56 0.63,-1.02 1.4,-1.02 2.51,0 7.51,-6.89 9.19,-12.65 1.93,-6.65 1.65,-24.44 -0.4,-25.12 -0.66,-0.22 -0.95,-0.8 -0.65,-1.29 0.68,-1.11 -1.11,-4.69 -3.85,-7.7 -1.13,-1.25 -4.51,-3.38 -7.5,-4.75 L 745.76,254 H 237.42 l -4.4,2.25 c -5.25,2.68 -9.77,8.06 -11.25,13.38 -1.96,7.05 -2.09,21.09 -0.25,26.72 1.61,4.93 7.2,13.26 8.22,12.24 0.27,-0.27 1.16,0.16 1.96,0.97 0.8,0.8 1.87,1.2 2.38,0.89 0.51,-0.31 0.92,-0.09 0.92,0.49 0,0.74 74.96,1.14 249.25,1.34 z M 619.5,628.42 c 5.98,1.44 27.5,-1.97 27.5,-4.36 0,-0.47 2.02,-1.69 4.5,-2.71 2.47,-1.02 4.49,-2.19 4.5,-2.6 0,-0.41 0.67,-0.75 1.5,-0.75 0.83,0 1.5,-0.45 1.5,-1 0,-0.55 0.58,-1 1.29,-1 1.49,0 10.61,-8.98 9.17,-9.03 -0.53,-0.02 -0.16,-0.49 0.81,-1.06 0.98,-0.57 1.54,-1.41 1.26,-1.87 -0.29,-0.46 0.18,-1.1 1.04,-1.43 0.86,-0.33 1.31,-1 1,-1.5 -0.31,-0.49 0.16,-1.18 1.04,-1.51 0.88,-0.34 1.35,-1.26 1.05,-2.04 -0.3,-0.79 -0.11,-1.58 0.43,-1.76 0.54,-0.18 1.75,-2.34 2.69,-4.81 1.55,-4.05 1.77,-11.84 2.22,-79.99 0.49,-73.49 0.55,-75.59 2.52,-79 2.8,-4.84 8.26,-7.31 22.14,-10.01 6.51,-1.27 12.13,-2.75 12.48,-3.28 0.35,-0.53 1.09,-0.69 1.64,-0.35 1.04,0.65 46.34,-8.32 47.22,-9.34 0.28,-0.32 1.62,-0.63 3,-0.68 1.38,-0.05 6.21,-0.69 10.74,-1.42 7.84,-1.26 8.37,-1.22 10.96,0.7 1.49,1.12 3.07,3.43 3.52,5.13 0.44,1.71 0.68,23.5 0.54,48.43 -0.26,44.68 -0.29,45.32 -2.26,45.03 -1.1,-0.16 -2.9,-0.66 -4,-1.11 -5.91,-2.43 -10.13,-3.1 -20.08,-3.17 -6.04,-0.05 -12.09,0.35 -13.45,0.89 -1.36,0.53 -4.38,1.54 -6.72,2.24 -2.34,0.69 -4.25,1.53 -4.25,1.86 0,0.32 -1.37,1.2 -3.05,1.94 -2.84,1.26 -14.95,12.29 -14.95,13.63 0,0.32 -0.86,1.52 -1.91,2.65 -1.05,1.13 -3.14,5.89 -4.63,10.57 -3.04,9.56 -3.07,18.35 -0.08,24.34 0.89,1.79 1.62,3.86 1.62,4.6 0,0.74 0.45,1.35 1,1.35 0.55,0 1,0.72 1,1.6 0,2.01 12.82,14.63 14.08,13.85 0.5,-0.31 0.92,-0.06 0.92,0.55 0,0.61 0.45,0.84 1,0.5 0.55,-0.34 1,-0.16 1,0.4 0,2.1 12.95,5.1 22.03,5.1 8.65,0 18.97,-1.66 18.97,-3.05 0,-0.38 1.08,-0.7 2.41,-0.7 2.85,0 13.51,-5.88 14.27,-7.87 0.3,-0.76 1.11,-1.38 1.82,-1.38 1.76,0 12.67,-11.92 11.96,-13.07 -0.32,-0.51 -0.07,-0.93 0.54,-0.93 0.61,0 0.84,-0.45 0.5,-1 -0.34,-0.55 -0.11,-1 0.5,-1 0.61,0 0.84,-0.45 0.5,-1 -0.34,-0.55 -0.11,-1 0.5,-1 0.61,0 0.84,-0.45 0.5,-1 -0.34,-0.55 -0.11,-1 0.5,-1 0.61,0 0.86,-0.41 0.55,-0.91 -0.31,-0.51 -0.1,-1.07 0.47,-1.26 1.84,-0.62 4,-11.02 3.34,-16.08 -0.42,-3.23 -0.26,-4.75 0.51,-4.75 0.83,0 1.13,-23.56 1.13,-89 0,-65.77 -0.3,-89 -1.14,-89 -0.77,0 -0.93,-1.45 -0.52,-4.5 0.39,-2.84 0.24,-4.5 -0.42,-4.5 -0.57,0 -0.75,-0.47 -0.39,-1.04 0.94,-1.53 -2.15,-5.75 -5.83,-8 -4.54,-2.77 -14.63,-2.55 -29.81,0.65 -6.82,1.44 -14.64,2.98 -17.39,3.43 -2.75,0.45 -7.25,1.3 -10,1.9 -2.75,0.59 -6.35,1.33 -8,1.64 -9.41,1.75 -25.12,4.87 -40.5,8.04 -22.16,4.58 -24.62,5.06 -29.5,5.84 -10.87,1.74 -17.1,5.07 -20.25,10.84 -1.62,2.96 -1.79,9.81 -2.25,90.2 -0.5,86.28 -0.52,87 -2.5,86.72 -1.1,-0.16 -5.08,-0.81 -8.83,-1.44 -8.12,-1.38 -24.68,0.08 -29.78,2.63 -1.76,0.87 -3.73,1.59 -4.39,1.59 -0.66,0 -2.23,0.9 -3.5,2 -1.27,1.1 -2.91,2 -3.65,2 -0.74,0 -1.35,0.45 -1.35,1 0,0.55 -0.63,1 -1.41,1 -1.74,0 -10.59,9.7 -10.59,11.61 0,0.76 -0.39,1.39 -0.88,1.39 -0.48,0 -1.91,2.36 -3.18,5.25 -3.12,7.13 -3.37,21.75 -0.49,29.5 1.07,2.89 2.31,5.25 2.75,5.25 0.44,0 0.8,0.67 0.8,1.5 0,0.83 0.45,1.5 1,1.5 0.55,0 1,0.58 1,1.3 0,1.49 7.98,9.6 8.03,8.15 0.02,-0.52 0.49,-0.15 1.06,0.82 0.57,0.98 1.46,1.51 1.97,1.19 0.52,-0.32 0.94,-0.13 0.94,0.41 0,1 3.84,2.7 5.25,2.33 0.41,-0.11 0.75,0.19 0.75,0.67 0,0.76 2.68,1.66 10.5,3.55 z M 394.62,670.2 c 0.29,0.46 50.78,0.72 112.2,0.57 l 111.68,-0.27 5.75,-2.69 c 3.16,-1.49 5.75,-3.13 5.75,-3.65 0,-0.52 1.12,-1.23 2.5,-1.57 1.38,-0.35 2.5,-1.31 2.5,-2.15 0,-1.24 -0.71,-1.38 -3.75,-0.74 -4.93,1.05 -21,0.72 -23.66,-0.48 -10.67,-4.81 -20.32,-9.98 -21.4,-11.44 -0.72,-0.98 -1.67,-1.78 -2.13,-1.78 -0.96,0 -8.93,-7.79 -8.46,-8.27 0.18,-0.17 -1.4,-2.2 -3.5,-4.5 -2.1,-2.3 -3.59,-4.4 -3.32,-4.68 0.28,-0.28 -0.23,-0.79 -1.13,-1.13 -0.9,-0.35 -1.42,-0.98 -1.16,-1.4 0.66,-1.08 -7.36,-10.02 -8.99,-10.02 -0.73,0 -1.48,-0.44 -1.67,-0.97 -0.65,-1.91 -15.67,-3.09 -37.82,-2.97 -20.63,0.12 -23.07,0.32 -29.19,2.41 -3.68,1.25 -7.9,3.24 -9.39,4.4 -1.48,1.17 -3.31,2.13 -4.06,2.13 -0.76,0 -1.37,0.45 -1.37,1 0,0.55 -0.82,1 -1.81,1 -1,0 -2.69,0.79 -3.75,1.75 -1.07,0.96 -3.52,2.53 -5.44,3.48 -4.88,2.41 -12.21,6.73 -14,8.25 -0.83,0.71 -2.51,1.59 -3.75,1.97 -1.24,0.38 -2.25,1.06 -2.25,1.51 0,0.45 -1.09,1.1 -2.43,1.43 -1.34,0.34 -3.02,1.17 -3.75,1.86 -0.73,0.69 -4.35,2.83 -8.06,4.75 -3.71,1.92 -6.75,3.84 -6.75,4.25 -0.01,0.41 -0.65,0.75 -1.44,0.75 -0.78,0 -2.04,0.62 -2.8,1.37 -0.75,0.75 -2.35,1.68 -3.57,2.07 -1.21,0.38 -2.2,1.11 -2.2,1.63 0,0.51 -0.64,0.93 -1.43,0.93 -0.78,0 -2.02,0.58 -2.75,1.29 -0.73,0.71 -2.78,1.89 -4.57,2.62 -1.79,0.73 -3.25,1.73 -3.25,2.21 0,0.48 -0.44,0.88 -0.99,0.88 -1.55,0 -4.96,3.26 -4.39,4.2 z M 594.9,429.93 c 14.14,-3.03 22.05,-17.9 19,-35.71 -1.91,-11.11 -5.11,-15.8 -13.9,-20.38 l -4.5,-2.34 -86.2,-0.23 c -63.63,-0.18 -86.39,0.06 -86.9,0.9 -0.39,0.63 -0.3,0.89 0.2,0.59 0.49,-0.3 1.53,0.13 2.3,0.96 1.22,1.32 1.09,1.42 -1,0.84 -1.32,-0.37 0.3,0.85 3.6,2.7 3.3,1.86 7.58,4.31 9.5,5.45 3.78,2.24 34.59,20.1 50,28.98 5.23,3.01 11.75,6.85 14.5,8.54 2.75,1.68 8.15,4.79 12,6.9 l 7,3.84 34.7,0.02 c 20.97,0 36.68,-0.41 39.7,-1.06 z M 259.75,551.01 270,551 v -28.39 c 0,-24.97 -0.19,-28.47 -1.58,-29 -3.45,-1.33 -29.02,-0.62 -34.28,0.94 -10.08,2.99 -15.14,12.05 -15.14,27.08 0,13.6 3.83,23.32 10.69,27.17 2.84,1.59 14.11,3.22 17.81,2.58 1.1,-0.2 6.61,-0.36 12.25,-0.37 z m 10.43,117.24 c 0.18,-1.51 0.09,-14.45 -0.18,-28.75 l -0.5,-26 -15.6,-0.27 c -8.57,-0.16 -16.67,0.15 -18,0.68 -1.68,0.67 2.94,0.98 15.35,1.03 L 269,615 h -17.1 c -13.69,0 -17.78,0.32 -20.51,1.62 -1.91,0.9 -3.65,2.21 -5.13,3.81 1.05,-1.17 2.26,-2.21 3.66,-3.16 1.86,-1.25 2.93,-2.27 2.38,-2.27 -2.62,0 -8.04,5.04 -10.25,9.53 -1.88,3.81 -2.55,7.05 -2.88,13.86 -0.78,16.31 3.25,25.57 13.14,30.17 4.81,2.24 6.37,2.42 21.37,2.43 L 269.87,671 Z M 233.79,429.42 c 3.42,1.06 8.96,1.41 20.21,1.27 l 15.5,-0.19 0.27,-27.65 0.26,-27.66 -10.67,-0.72 c -12.17,-0.83 -25.71,0.65 -30.53,3.34 -5.06,2.83 -8.16,10.05 -8.63,20.12 -0.43,8.94 1.11,20.33 2.81,20.9 0.55,0.19 0.99,0.82 0.99,1.41 0,2.81 5.31,7.8 9.79,9.18 z m 276.71,-5.37 c -7.77,-4.62 -30.67,-17.95 -49,-28.52 -22.37,-12.91 -34.03,-19.73 -34.47,-20.17 -0.3,-0.29 -0.27,-0.56 0.24,-0.79 -0.29,0.32 -0.4,0.61 -0.24,0.76 0.26,0.23 9.7,5.74 20.97,12.24 11.27,6.49 31.94,18.47 45.93,26.62 l 25.08,14.61 -0.51,-0.01 z m 86.58,-50.04 c 1.39,0.26 2.12,0.58 2.92,0.99 9.46,4.82 13.4,13.46 12.78,28 -0.12,2.94 -0.35,5.44 -0.74,7.61 0.33,-2.36 0.46,-5.16 0.46,-8.61 0,-7.78 -0.47,-11.73 -1.83,-15.24 -2.12,-5.49 -8.27,-11.27 -13.59,-12.75 z m -78.94,-1 c 58.12,0 73.03,0.05 78.5,0.92 -4.76,-0.57 -40.9,-0.88 -78.5,-0.92 z M 221.08,632.54 c -0.66,5.81 -0.59,14.28 0.2,19.59 -1.3,-5.54 -1.46,-12.16 -0.32,-18.92 0.04,-0.23 0.08,-0.45 0.12,-0.67 z m 3.09,27.17 c 2.76,4.1 7.19,7.72 11.29,8.92 -4.28,-0.92 -6.25,-2.62 -9.26,-6.05 -0.74,-0.85 -1.42,-1.81 -2.03,-2.87 z m 9,-110.43 c -1.87,-0.35 -4.18,-2.09 -6.25,-4.4 1.15,1.15 2.49,2.09 4.04,2.87 1.77,0.89 3.09,1.43 5.26,1.76 -1.58,-0.07 -2.66,-0.15 -3.05,-0.23 z m -8.56,-7.39 c -1.19,-1.78 -2.13,-3.68 -2.63,-5.46 -0.4,-1.42 -0.76,-3.95 -1.02,-6.84 0.75,5.39 1.89,9.34 3.65,12.3 z M 269,670.23 255.75,669.9 269,670 Z M 220.65,516.18 c 0.16,-4.1 0.64,-6.02 2.08,-9.08 -1.02,2.68 -1.72,5.75 -2.08,9.08 z M 443.91,373.37 c 9.85,-0.21 24.87,-0.3 47.26,-0.34 -18.51,0.05 -35.55,0.16 -47.26,0.34 z m -218.25,128.2 c 1.41,-2.2 2.9,-3.61 5.28,-4.53 -0.32,0.16 -0.63,0.33 -0.94,0.51 -1.64,0.96 -3.09,2.32 -4.34,4.02 z M 605.34,423.2 c -2.69,2.55 -4.33,3.98 -9.04,4.77 4.7,-0.8 6.36,-2.23 9.04,-4.77 z"
       fill="#13344d"
       id="path2"
       style="fill:#25679c;fill-opacity:1" />
    <path
       d="m 238.75,788.31 c -0.96,-0.25 -1.75,-0.9 -1.75,-1.44 0,-0.54 -0.43,-0.72 -0.96,-0.39 -1.42,0.88 -9.19,-4.34 -9.77,-6.57 -0.28,-1.05 -0.87,-1.91 -1.31,-1.91 -0.45,0 -1.75,-2.49 -2.89,-5.54 -2.23,-5.97 -2.88,-19.37 -1.14,-23.66 0.51,-1.27 1.17,-3.43 1.46,-4.8 0.63,-3 7.47,-10.36 11.61,-12.5 2.63,-1.36 31.19,-1.53 258.41,-1.51 240.98,0.02 255.63,0.12 258.59,1.77 3.39,1.88 10.63,8.24 9.38,8.24 -0.42,0 0.07,0.61 1.08,1.35 1.02,0.74 1.55,1.83 1.19,2.41 -0.37,0.59 -0.14,1.24 0.5,1.46 0.76,0.25 1.26,4.01 1.45,10.83 0.31,11.49 -1.42,20.16 -4.37,21.88 -0.95,0.55 -1.31,1.02 -0.81,1.04 1.38,0.04 -3.57,5.03 -4.99,5.03 -0.67,0 -1.44,0.59 -1.72,1.31 -1.41,3.69 -1.84,3.69 -260.33,3.57 -138.53,-0.06 -252.67,-0.32 -253.63,-0.57 z M 484.25,312.28 C 309.96,312.08 235,311.68 235,310.94 c 0,-0.58 -0.41,-0.8 -0.92,-0.49 -0.51,0.31 -1.58,-0.09 -2.38,-0.89 -0.8,-0.81 -1.69,-1.24 -1.96,-0.97 -1.02,1.02 -6.61,-7.31 -8.22,-12.24 -1.84,-5.63 -1.71,-19.67 0.25,-26.72 1.48,-5.32 6,-10.7 11.25,-13.38 l 4.4,-2.25 h 508.34 l 5.43,2.49 c 2.99,1.37 6.37,3.5 7.5,4.75 2.74,3.01 4.53,6.59 3.85,7.7 -0.3,0.49 -0.01,1.07 0.65,1.29 2.05,0.68 2.33,18.47 0.4,25.12 -1.68,5.76 -6.68,12.65 -9.19,12.65 -0.77,0 -1.4,0.46 -1.4,1.02 0,1.65 -3.97,2.69 -12,3.13 -4.12,0.23 -119.66,0.29 -256.75,0.13 z M 619.5,628.42 c -7.82,-1.89 -10.5,-2.79 -10.5,-3.55 0,-0.48 -0.34,-0.78 -0.75,-0.67 -1.41,0.37 -5.25,-1.33 -5.25,-2.33 0,-0.54 -0.42,-0.73 -0.94,-0.41 -0.51,0.32 -1.4,-0.21 -1.97,-1.19 -0.57,-0.97 -1.04,-1.34 -1.06,-0.82 -0.05,1.45 -8.03,-6.66 -8.03,-8.15 0,-0.72 -0.45,-1.3 -1,-1.3 -0.55,0 -1,-0.67 -1,-1.5 0,-0.83 -0.36,-1.5 -0.8,-1.5 -0.44,0 -1.68,-2.36 -2.75,-5.25 -2.88,-7.75 -2.63,-22.37 0.49,-29.5 1.27,-2.89 2.7,-5.25 3.18,-5.25 0.49,0 0.88,-0.63 0.88,-1.39 0,-1.91 8.85,-11.61 10.59,-11.61 0.78,0 1.41,-0.45 1.41,-1 0,-0.55 0.61,-1 1.35,-1 0.74,0 2.38,-0.9 3.65,-2 1.27,-1.1 2.84,-2 3.5,-2 0.66,0 2.63,-0.72 4.39,-1.59 5.1,-2.55 21.66,-4.01 29.78,-2.63 3.75,0.63 7.73,1.28 8.83,1.44 1.98,0.28 2,-0.44 2.5,-86.72 0.46,-80.39 0.63,-87.24 2.25,-90.2 3.15,-5.77 9.38,-9.1 20.25,-10.84 4.88,-0.78 7.34,-1.26 29.5,-5.84 15.38,-3.17 31.09,-6.29 40.5,-8.04 1.65,-0.31 5.25,-1.05 8,-1.64 2.75,-0.6 7.25,-1.45 10,-1.9 2.75,-0.45 10.57,-1.99 17.39,-3.43 15.18,-3.2 25.27,-3.42 29.81,-0.65 3.68,2.25 6.77,6.47 5.83,8 -0.36,0.57 -0.18,1.04 0.39,1.04 0.66,0 0.81,1.66 0.42,4.5 -0.41,3.05 -0.25,4.5 0.52,4.5 0.84,0 1.14,23.23 1.14,89 0,65.44 -0.3,89 -1.13,89 -0.77,0 -0.93,1.52 -0.51,4.75 0.66,5.06 -1.5,15.46 -3.34,16.08 -0.57,0.19 -0.78,0.75 -0.47,1.26 0.31,0.5 0.06,0.91 -0.55,0.91 -0.61,0 -0.84,0.45 -0.5,1 0.34,0.55 0.11,1 -0.5,1 -0.61,0 -0.84,0.45 -0.5,1 0.34,0.55 0.11,1 -0.5,1 -0.61,0 -0.84,0.45 -0.5,1 0.34,0.55 0.11,1 -0.5,1 -0.61,0 -0.86,0.42 -0.54,0.93 0.71,1.15 -10.2,13.07 -11.96,13.07 -0.71,0 -1.52,0.62 -1.82,1.38 -0.76,1.99 -11.42,7.87 -14.27,7.87 -1.33,0 -2.41,0.32 -2.41,0.7 0,1.39 -10.32,3.05 -18.97,3.05 -9.08,0 -22.03,-3 -22.03,-5.1 0,-0.56 -0.45,-0.74 -1,-0.4 -0.55,0.34 -1,0.11 -1,-0.5 0,-0.61 -0.42,-0.86 -0.92,-0.55 -1.26,0.78 -14.08,-11.84 -14.08,-13.85 0,-0.88 -0.45,-1.6 -1,-1.6 -0.55,0 -1,-0.61 -1,-1.35 0,-0.74 -0.73,-2.81 -1.62,-4.6 -2.99,-5.99 -2.96,-14.78 0.08,-24.34 1.49,-4.68 3.58,-9.44 4.63,-10.57 1.05,-1.13 1.91,-2.33 1.91,-2.65 0,-1.34 12.11,-12.37 14.95,-13.63 1.68,-0.74 3.05,-1.62 3.05,-1.94 0,-0.33 1.91,-1.17 4.25,-1.86 2.34,-0.7 5.36,-1.71 6.72,-2.24 1.36,-0.54 7.41,-0.94 13.45,-0.89 9.95,0.07 14.17,0.74 20.08,3.17 1.1,0.45 2.9,0.95 4,1.11 1.97,0.29 2,-0.35 2.26,-45.03 0.14,-24.93 -0.1,-46.72 -0.54,-48.43 -0.45,-1.7 -2.03,-4.01 -3.52,-5.13 -2.59,-1.92 -3.12,-1.96 -10.96,-0.7 -4.53,0.73 -9.36,1.37 -10.74,1.42 -1.38,0.05 -2.72,0.36 -3,0.68 -0.88,1.02 -46.18,9.99 -47.22,9.34 -0.55,-0.34 -1.29,-0.18 -1.64,0.35 -0.35,0.53 -5.97,2.01 -12.48,3.28 -13.88,2.7 -19.34,5.17 -22.14,10.01 -1.97,3.41 -2.03,5.51 -2.52,79 -0.45,68.15 -0.67,75.94 -2.22,79.99 -0.94,2.47 -2.15,4.63 -2.69,4.81 -0.54,0.18 -0.73,0.97 -0.43,1.76 0.3,0.78 -0.17,1.7 -1.05,2.04 -0.88,0.33 -1.35,1.02 -1.04,1.51 0.31,0.5 -0.14,1.17 -1,1.5 -0.86,0.33 -1.33,0.97 -1.04,1.43 0.28,0.46 -0.28,1.3 -1.26,1.87 -0.97,0.57 -1.34,1.04 -0.81,1.06 1.44,0.05 -7.68,9.03 -9.17,9.03 -0.71,0 -1.29,0.45 -1.29,1 0,0.55 -0.67,1 -1.5,1 -0.83,0 -1.5,0.34 -1.5,0.75 -0.01,0.41 -2.03,1.58 -4.5,2.6 -2.48,1.02 -4.5,2.24 -4.5,2.71 0,2.39 -21.52,5.8 -27.5,4.36 z M 394.62,670.2 c -0.57,-0.94 2.84,-4.2 4.39,-4.2 0.55,0 0.99,-0.4 0.99,-0.88 0,-0.48 1.46,-1.48 3.25,-2.21 1.79,-0.73 3.84,-1.91 4.57,-2.62 0.73,-0.71 1.97,-1.29 2.75,-1.29 0.79,0 1.43,-0.42 1.43,-0.93 0,-0.52 0.99,-1.25 2.2,-1.63 1.22,-0.39 2.82,-1.32 3.57,-2.07 0.76,-0.75 2.02,-1.37 2.8,-1.37 0.79,0 1.43,-0.34 1.44,-0.75 0,-0.41 3.04,-2.33 6.75,-4.25 3.71,-1.92 7.33,-4.06 8.06,-4.75 0.73,-0.69 2.41,-1.52 3.75,-1.86 1.34,-0.33 2.43,-0.98 2.43,-1.43 0,-0.45 1.01,-1.13 2.25,-1.51 1.24,-0.38 2.92,-1.26 3.75,-1.97 1.79,-1.52 9.12,-5.84 14,-8.25 1.92,-0.95 4.37,-2.52 5.44,-3.48 1.06,-0.96 2.75,-1.75 3.75,-1.75 0.99,0 1.81,-0.45 1.81,-1 0,-0.55 0.61,-1 1.37,-1 0.75,0 2.58,-0.96 4.06,-2.13 1.49,-1.16 5.71,-3.15 9.39,-4.4 6.12,-2.09 8.56,-2.29 29.19,-2.41 22.15,-0.12 37.17,1.06 37.82,2.97 0.19,0.53 0.94,0.97 1.67,0.97 1.63,0 9.65,8.94 8.99,10.02 -0.26,0.42 0.26,1.05 1.16,1.4 0.9,0.34 1.41,0.85 1.13,1.13 -0.27,0.28 1.22,2.38 3.32,4.68 2.1,2.3 3.68,4.33 3.5,4.5 -0.47,0.48 7.5,8.27 8.46,8.27 0.46,0 1.41,0.8 2.13,1.78 1.08,1.46 10.73,6.63 21.4,11.44 2.66,1.2 18.73,1.53 23.66,0.48 3.04,-0.64 3.75,-0.5 3.75,0.74 0,0.84 -1.12,1.8 -2.5,2.15 -1.38,0.34 -2.5,1.05 -2.5,1.57 0,0.52 -2.59,2.16 -5.75,3.65 l -5.75,2.69 -111.68,0.27 c -61.42,0.15 -111.91,-0.11 -112.2,-0.57 z M 597.08,374.01 c 5.32,1.48 11.47,7.26 13.59,12.75 1.36,3.51 1.83,7.46 1.83,15.24 0,3.45 -0.13,6.25 -0.46,8.61 -0.98,5.54 -2.95,9.03 -6.7,12.59 -2.69,2.55 -4.33,3.98 -9.04,4.77 v 0 c -5.85,0.99 -16.41,0.99 -39.52,0.93 l -37.77,-0.1 -25.08,-14.61 c -13.99,-8.15 -34.66,-20.13 -45.93,-26.62 -11.27,-6.5 -20.71,-12.01 -20.97,-12.24 -0.16,-0.15 -0.05,-0.44 0.24,-0.76 1.33,-0.59 5.93,-0.96 16.64,-1.2 11.7,-0.18 28.74,-0.29 47.25,-0.34 h 0.01 c 6.56,-0.01 13.75,-0.01 21.62,-0.01 1.82,-0.01 3.61,-0.01 5.35,-0.01 v 0 c 37.61,0.04 73.74,0.35 78.5,0.92 0.15,0.02 0.3,0.05 0.44,0.08 z m -363.29,55.41 c -4.48,-1.38 -9.79,-6.37 -9.79,-9.18 0,-0.59 -0.44,-1.22 -0.99,-1.41 -1.7,-0.57 -3.24,-11.96 -2.81,-20.9 0.47,-10.07 3.57,-17.29 8.63,-20.12 4.82,-2.69 18.36,-4.17 30.53,-3.34 l 10.67,0.72 -0.26,27.66 -0.27,27.65 -15.5,0.19 c -11.25,0.14 -16.79,-0.21 -20.21,-1.27 z m -9.18,112.47 c -1.76,-2.96 -2.9,-6.91 -3.65,-12.3 -0.23,-2.62 -0.37,-5.53 -0.37,-8.17 0,-2.11 0.01,-3.81 0.06,-5.24 0.36,-3.33 1.06,-6.4 2.08,-9.08 0.24,-0.52 0.51,-1.07 0.81,-1.67 0.75,-1.5 1.43,-2.78 2.12,-3.86 1.25,-1.7 2.7,-3.06 4.34,-4.02 0.31,-0.18 0.62,-0.35 0.94,-0.51 3.66,-1.41 9.44,-1.67 20.31,-1.87 L 269,494.84 V 550 l -16.75,-0.14 c -6.39,-0.05 -12.47,-0.19 -16.03,-0.35 -2.17,-0.33 -3.49,-0.87 -5.26,-1.76 -1.55,-0.78 -2.89,-1.72 -4.04,-2.87 -0.82,-0.92 -1.61,-1.93 -2.31,-2.99 z m -3.53,90.65 c 0.98,-5.4 2.57,-9.18 5.18,-12.11 1.48,-1.6 3.22,-2.91 5.13,-3.81 2.73,-1.3 6.82,-1.62 20.51,-1.62 H 269 v 55 l -13.24,-0.1 h -0.01 l -3.5,-0.09 c -8.32,-0.2 -13.31,-0.43 -16.79,-1.18 -4.1,-1.2 -8.53,-4.82 -11.29,-8.92 -1.25,-2.16 -2.22,-4.73 -2.89,-7.58 -0.79,-5.31 -0.86,-13.78 -0.2,-19.59 z"
       fill="#f5c632"
       id="path3"
       style="opacity:1;fill:#fbc525;fill-opacity:1" />
    <path
       d="m 367.79,667.24 -34.45,21.95 -6.55,0.23 c -3.61,0.13 -7.72,-0.14 -9.15,-0.59 -3.56,-1.16 -9.05,-6.87 -11.18,-11.63 -1.67,-3.75 -1.75,-12.78 -1.48,-164.47 0.15,-88.27 0.6,-161.57 0.98,-162.88 0.79,-2.67 5.73,-7.45 10.27,-9.94 3.87,-2.11 12.16,-2.33 16,-0.42 5.65,2.81 36.4,21.78 37.5,23.13 0.57,0.69 2.35,1.8 9.5,5.91 5.18,2.98 33.09,20.37 80.5,50.17 50.16,31.52 62.5,39.42 62.83,40.23 0.19,0.44 0.71,0.8 1.17,0.8 0.47,0 9.32,5.31 19.67,11.8 45.77,28.68 44.13,27.42 46.72,36.15 1.54,5.16 0.9,10.66 -1.82,15.91 -0.27,0.5 -0.46,0.93 -0.69,1.34 -2.01,3.69 -6.16,6.21 -77.38,51.57 -15.95,10.16 -34.71,22.13 -41.68,26.6 -6.97,4.47 -14.62,9.31 -17,10.76 -2.38,1.45 -14.44,9.11 -26.82,17.03 -12.38,7.92 -38,24.27 -56.94,36.35 z"
       fill="#01f702"
       id="path1-8"
       style="fill:#ffffff;fill-opacity:1" />
  </g>
</svg>
