<svg xmlns="http://www.w3.org/2000/svg" width="1024" height="1024" viewBox="0 0 1024 1024">
<g>
<path d="M 594.90 429.93 C591.88,430.58 576.17,430.99 555.20,430.99 L 520.50 430.97 L 513.50 427.13 C509.65,425.02 504.25,421.91 501.50,420.23 C498.75,418.54 492.23,414.70 487.00,411.69 C471.59,402.81 440.78,384.95 437.00,382.71 C435.08,381.57 430.80,379.12 427.50,377.26 C424.20,375.41 422.58,374.19 423.90,374.56 C425.99,375.14 426.12,375.04 424.90,373.72 C424.13,372.89 423.09,372.46 422.60,372.76 C422.10,373.06 422.01,372.80 422.40,372.17 C422.91,371.33 445.67,371.09 509.30,371.27 L 595.50 371.50 L 600.00 373.84 C608.79,378.42 611.99,383.11 613.90,394.22 C616.95,412.03 609.04,426.90 594.90,429.93 ZM 510.50 424.05 L 518.50 428.79 L 556.78 428.90 C598.52,429.01 599.32,428.92 605.34,423.20 C610.56,418.24 612.34,413.41 612.78,403.00 C613.40,388.46 609.46,379.82 600.00,375.00 C596.17,373.05 594.11,373.00 512.79,373.02 C437.49,373.03 425.04,373.37 427.03,375.36 C427.47,375.80 439.13,382.62 461.50,395.53 C479.83,406.10 502.73,419.43 510.50,424.05 ZM 259.75 551.01 C254.11,551.02 248.60,551.18 247.50,551.38 C243.80,552.02 232.53,550.39 229.69,548.80 C222.83,544.95 219.00,535.23 219.00,521.63 C219.00,506.60 224.06,497.54 234.14,494.55 C239.40,492.99 264.97,492.28 268.42,493.61 C269.81,494.14 270.00,497.64 270.00,522.61 L 270.00 551.00 ZM 233.17 549.28 C234.45,549.53 243.04,549.79 252.25,549.86 L 269.00 550.00 L 269.00 494.84 L 251.25 495.17 C229.83,495.57 228.17,496.18 223.54,505.43 C220.85,510.81 220.58,512.25 220.59,521.42 C220.59,526.96 221.21,533.72 221.98,536.43 C223.51,541.90 229.30,548.55 233.17,549.28 ZM 270.18 668.25 L 269.87 671.00 L 253.68 670.99 C238.68,670.98 237.12,670.80 232.31,668.56 C222.42,663.96 218.39,654.70 219.17,638.39 C219.50,631.58 220.17,628.34 222.05,624.53 C224.26,620.04 229.68,615.00 232.30,615.00 C232.85,615.00 231.78,616.02 229.92,617.27 C224.87,620.68 222.31,625.24 220.96,633.21 C218.95,645.16 221.00,656.65 226.20,662.58 C231.66,668.79 233.68,669.35 252.25,669.81 L 269.00 670.23 L 269.00 615.00 L 251.25 614.94 C238.84,614.89 234.22,614.58 235.90,613.91 C237.23,613.38 245.33,613.07 253.90,613.23 L 269.50 613.50 L 270.00 639.50 C270.27,653.80 270.36,666.74 270.18,668.25 Z" fill="rgb(9,22,30)"/>
<path d="M 796.50 881.19 L 788.50 883.45 L 515.00 883.62 C281.07,883.77 240.41,883.58 234.00,882.36 C226.32,880.89 214.86,877.68 209.50,875.51 C201.34,872.20 196.00,869.58 196.00,868.89 C196.00,868.47 194.43,867.56 192.50,866.86 C190.57,866.17 189.00,865.24 189.00,864.80 C189.00,864.36 188.32,864.00 187.50,864.00 C186.68,864.00 186.00,863.55 186.00,863.00 C186.00,862.45 185.31,862.00 184.47,862.00 C183.63,862.00 182.68,861.33 182.36,860.50 C182.05,859.67 181.32,859.00 180.76,859.00 C180.19,859.00 178.70,857.99 177.44,856.75 C176.18,855.51 171.88,851.35 167.89,847.50 C163.90,843.65 160.71,840.17 160.81,839.77 C160.90,839.37 159.66,838.07 158.03,836.86 C156.41,835.66 155.29,834.33 155.56,833.91 C155.82,833.48 155.13,832.50 154.02,831.73 C152.92,830.95 152.30,830.03 152.65,829.68 C153.00,829.33 152.55,828.76 151.65,828.42 C150.75,828.07 150.26,827.38 150.57,826.89 C150.88,826.39 150.43,825.72 149.57,825.39 C148.71,825.06 148.22,824.46 148.47,824.05 C148.72,823.64 148.07,822.38 147.03,821.26 C145.98,820.13 145.39,818.94 145.73,818.61 C146.06,818.27 145.73,818.00 145.00,818.00 C144.27,818.00 143.95,817.72 144.29,817.38 C144.87,816.79 140.46,807.08 139.12,806.00 C138.78,805.72 138.35,804.60 138.16,803.50 C137.97,802.40 137.43,801.36 136.96,801.19 C136.50,801.01 136.36,800.22 136.66,799.44 C136.97,798.65 136.73,798.00 136.14,798.00 C135.55,798.00 135.32,797.33 135.64,796.50 C135.95,795.67 135.72,795.00 135.11,795.00 C134.50,795.00 134.05,794.66 134.12,794.25 C134.18,793.84 134.15,793.28 134.05,793.00 C133.95,792.72 133.66,790.92 133.42,789.00 C133.17,787.08 132.57,785.37 132.09,785.20 C131.61,785.04 131.44,784.03 131.72,782.95 C132.00,781.88 131.74,781.00 131.14,781.00 C130.46,781.00 130.28,779.87 130.65,778.00 C131.03,776.12 130.84,775.00 130.15,775.00 C129.46,775.00 129.27,773.88 129.65,772.00 C129.98,770.35 129.86,768.44 129.37,767.75 C128.48,766.47 129.36,253.04 130.27,247.50 C130.54,245.85 131.08,243.73 131.47,242.80 C131.86,241.86 131.89,240.62 131.53,240.05 C131.17,239.47 131.27,239.00 131.75,239.00 C132.53,239.00 135.43,230.04 135.48,227.50 C135.49,226.95 135.88,226.22 136.35,225.88 C136.81,225.54 137.26,224.08 137.35,222.63 C137.43,221.18 137.91,220.00 138.42,220.00 C138.92,220.00 139.05,219.72 138.71,219.38 C138.37,219.04 138.77,218.08 139.61,217.25 C140.44,216.42 140.89,215.16 140.62,214.45 C140.35,213.75 140.80,212.91 141.63,212.59 C142.45,212.27 142.85,211.56 142.50,211.01 C142.16,210.45 142.39,210.00 143.00,210.00 C143.61,210.00 143.84,209.55 143.50,209.00 C143.16,208.45 143.39,208.00 144.00,208.00 C144.61,208.00 144.84,207.55 144.50,207.00 C144.16,206.45 144.39,206.00 145.00,206.00 C145.61,206.00 145.84,205.55 145.50,205.00 C145.16,204.45 145.35,204.00 145.92,204.00 C147.00,204.00 150.55,198.03 150.22,196.78 C150.11,196.38 150.93,195.57 152.04,194.98 C153.15,194.39 153.82,193.52 153.54,193.06 C153.25,192.60 154.14,191.49 155.50,190.59 C156.87,189.69 157.92,188.63 157.84,188.23 C157.63,187.22 175.80,169.00 177.01,169.00 C177.54,169.00 178.55,168.10 179.23,167.00 C179.92,165.90 181.05,165.00 181.74,165.00 C182.43,165.00 183.00,164.55 183.00,164.00 C183.00,163.45 183.68,163.00 184.50,163.00 C185.32,163.00 186.00,162.55 186.00,162.00 C186.00,161.45 186.68,161.00 187.50,161.00 C188.32,161.00 189.00,160.55 189.00,160.00 C189.00,159.45 189.69,159.00 190.54,159.00 C191.98,159.00 196.90,156.30 198.00,154.91 C199.04,153.60 204.98,151.00 206.95,151.00 C208.08,151.00 209.00,150.55 209.00,150.00 C209.00,149.45 210.12,149.00 211.50,149.00 C212.88,149.00 214.00,148.50 214.00,147.89 C214.00,147.28 214.68,147.05 215.50,147.36 C216.32,147.68 217.00,147.45 217.00,146.86 C217.00,146.27 217.68,146.05 218.50,146.36 C219.32,146.68 220.00,146.45 220.00,145.85 C220.00,145.26 220.90,145.00 222.00,145.29 C223.10,145.58 224.00,145.37 224.00,144.84 C224.00,144.30 224.90,144.15 226.00,144.50 C227.20,144.88 228.00,144.68 228.00,144.00 C228.00,143.32 228.80,143.12 230.00,143.50 C231.21,143.88 232.00,143.68 232.00,142.99 C232.00,142.23 233.03,142.07 235.00,142.50 C236.90,142.92 238.00,142.76 238.00,142.07 C238.00,141.35 239.39,141.20 242.00,141.62 C244.68,142.04 246.00,141.88 246.00,141.13 C246.00,140.29 315.24,140.00 512.00,140.00 C706.43,140.00 778.00,140.30 778.00,141.11 C778.00,141.84 779.21,142.00 781.50,141.57 C783.88,141.12 785.00,141.28 785.00,142.08 C785.00,142.85 786.03,143.04 788.00,142.65 C789.86,142.28 791.00,142.46 791.00,143.13 C791.00,143.79 791.99,143.97 793.50,143.59 C795.06,143.20 796.00,143.39 796.00,144.09 C796.00,144.71 796.67,144.95 797.50,144.64 C798.33,144.32 799.00,144.53 799.00,145.10 C799.00,145.68 799.88,145.86 801.00,145.50 C802.22,145.11 803.00,145.32 803.00,146.04 C803.00,146.69 803.67,146.95 804.50,146.64 C805.33,146.32 806.00,146.55 806.00,147.14 C806.00,147.73 806.67,147.95 807.50,147.64 C808.33,147.32 809.00,147.53 809.00,148.09 C809.00,148.66 809.45,148.84 810.00,148.50 C810.55,148.16 811.00,148.41 811.00,149.05 C811.00,149.69 811.67,149.95 812.50,149.64 C813.33,149.32 814.00,149.50 814.00,150.03 C814.00,150.56 815.12,151.00 816.50,151.00 C817.88,151.00 819.00,151.48 819.00,152.06 C819.00,152.64 819.45,152.84 820.00,152.50 C820.55,152.16 821.00,152.39 821.00,153.00 C821.00,153.61 821.45,153.84 822.00,153.50 C822.55,153.16 823.00,153.36 823.00,153.94 C823.00,154.52 823.34,154.95 823.75,154.88 C825.59,154.59 826.88,155.16 829.53,157.44 C831.10,158.79 832.74,159.66 833.19,159.38 C833.63,159.11 834.00,159.39 834.00,160.00 C834.00,160.61 834.45,160.84 835.01,160.50 C835.56,160.15 836.28,160.57 836.61,161.43 C836.94,162.29 837.57,162.77 838.00,162.50 C838.43,162.23 839.06,162.71 839.39,163.57 C839.72,164.43 840.44,164.84 841.00,164.50 C841.56,164.16 842.28,164.58 842.61,165.44 C842.94,166.30 843.73,167.00 844.37,167.00 C845.00,167.00 846.09,167.92 846.79,169.04 C847.49,170.16 848.39,170.87 848.80,170.63 C849.42,170.24 866.88,187.56 870.37,192.04 C875.42,198.50 877.43,201.68 881.85,210.19 C887.33,220.72 890.73,230.06 893.63,242.50 C895.43,250.20 895.50,260.35 895.50,513.00 C895.50,768.01 895.45,775.74 893.59,783.75 C892.53,788.29 891.36,792.00 890.97,792.00 C890.58,792.00 890.00,793.61 889.68,795.58 C888.98,799.91 877.97,822.61 875.07,825.71 C873.93,826.92 873.00,828.39 873.00,828.96 C873.00,829.53 872.58,830.00 872.07,830.00 C871.55,830.00 870.87,830.83 870.55,831.84 C870.23,832.85 865.36,838.25 859.73,843.84 C845.77,857.70 845.44,858.00 844.14,858.00 C843.52,858.00 843.00,858.40 843.00,858.88 C843.00,859.36 841.65,860.32 840.00,861.00 C838.35,861.68 837.00,862.64 837.00,863.12 C837.00,863.60 836.33,864.00 835.50,864.00 C834.67,864.00 834.00,864.42 834.00,864.93 C834.00,865.45 833.01,866.18 831.80,866.56 C830.58,866.95 828.98,867.88 828.23,868.63 C827.47,869.38 825.99,870.00 824.93,870.00 C823.87,870.00 823.00,870.38 823.00,870.84 C823.00,871.30 819.74,872.93 815.75,874.46 C811.76,875.99 807.60,877.62 806.50,878.09 C805.40,878.55 800.90,879.95 796.50,881.19 ZM 318.00 676.69 C318.00,677.14 320.48,677.56 323.50,677.63 C326.53,677.70 329.00,677.40 329.00,676.96 C329.00,676.52 330.44,675.84 332.19,675.46 C333.95,675.07 336.01,674.14 336.76,673.38 C337.52,672.62 338.79,672.00 339.57,672.00 C340.36,672.00 341.00,671.55 341.00,671.00 C341.00,670.45 341.91,670.00 343.03,670.00 C344.15,670.00 345.32,669.33 345.64,668.50 C345.95,667.67 347.08,667.00 348.14,667.00 C349.20,667.00 350.32,666.33 350.64,665.50 C350.95,664.67 352.08,664.00 353.14,664.00 C354.20,664.00 355.31,663.37 355.60,662.59 C355.90,661.81 357.24,660.91 358.57,660.57 C359.91,660.24 361.00,659.52 361.00,658.98 C361.00,658.44 361.67,658.00 362.50,658.00 C363.33,658.00 364.00,657.58 364.00,657.08 C364.00,656.57 365.58,655.64 367.50,655.00 C369.42,654.36 371.00,653.43 371.00,652.92 C371.00,652.42 371.67,652.00 372.50,652.00 C373.33,652.00 374.00,651.55 374.00,651.00 C374.00,650.45 374.61,650.00 375.35,650.00 C376.09,650.00 377.73,649.10 379.00,648.00 C380.27,646.90 381.91,646.00 382.65,646.00 C383.39,646.00 384.00,645.60 384.00,645.11 C384.00,644.62 385.12,643.93 386.50,643.59 C387.88,643.24 389.00,642.52 389.00,641.98 C389.00,641.44 389.91,641.00 391.03,641.00 C392.15,641.00 393.31,640.37 393.60,639.59 C393.90,638.81 395.24,637.91 396.57,637.57 C397.91,637.24 399.00,636.52 399.00,635.98 C399.00,635.44 399.67,635.00 400.50,635.00 C401.33,635.00 402.00,634.58 402.00,634.08 C402.00,633.57 403.58,632.64 405.50,632.00 C407.42,631.36 409.00,630.43 409.00,629.92 C409.00,629.42 409.67,629.00 410.50,629.00 C411.33,629.00 412.00,628.58 412.00,628.07 C412.00,627.55 412.99,626.82 414.20,626.44 C415.42,626.05 417.02,625.12 417.77,624.37 C418.53,623.62 419.79,623.00 420.57,623.00 C421.36,623.00 422.00,622.58 422.00,622.07 C422.00,621.55 422.99,620.82 424.20,620.44 C425.42,620.05 427.02,619.12 427.77,618.37 C428.53,617.62 429.79,617.00 430.57,617.00 C431.36,617.00 432.00,616.58 432.00,616.07 C432.00,615.55 432.99,614.82 434.20,614.44 C435.42,614.05 437.02,613.12 437.77,612.37 C438.53,611.62 439.79,611.00 440.57,611.00 C441.36,611.00 442.00,610.58 442.00,610.07 C442.00,609.55 442.99,608.82 444.20,608.44 C445.42,608.05 447.02,607.12 447.77,606.37 C448.53,605.62 449.79,605.00 450.57,605.00 C451.36,605.00 452.00,604.56 452.00,604.02 C452.00,603.48 453.12,602.76 454.50,602.41 C455.88,602.07 457.00,601.38 457.00,600.89 C457.00,600.40 457.61,600.00 458.35,600.00 C459.09,600.00 460.73,599.10 462.00,598.00 C463.27,596.90 464.91,596.00 465.65,596.00 C466.39,596.00 467.00,595.55 467.00,595.00 C467.00,594.45 467.61,594.00 468.35,594.00 C469.09,594.00 470.73,593.10 472.00,592.00 C473.27,590.90 474.91,590.00 475.65,590.00 C476.39,590.00 477.00,589.55 477.00,589.00 C477.00,588.45 477.91,588.00 479.03,588.00 C480.15,588.00 481.32,587.33 481.64,586.50 C481.95,585.67 483.08,585.00 484.14,585.00 C485.20,585.00 486.32,584.33 486.64,583.50 C486.95,582.67 487.97,582.00 488.88,582.00 C489.80,582.00 491.33,581.10 492.27,580.00 C493.21,578.90 494.66,578.00 495.49,578.00 C496.32,578.00 497.00,577.58 497.00,577.07 C497.00,576.55 497.99,575.82 499.20,575.44 C500.42,575.05 502.02,574.12 502.77,573.37 C503.53,572.62 504.79,572.00 505.57,572.00 C506.36,572.00 507.00,571.55 507.00,571.00 C507.00,570.45 507.67,570.00 508.50,570.00 C509.33,570.00 510.00,569.58 510.00,569.08 C510.00,568.57 511.58,567.64 513.50,567.00 C515.42,566.36 517.00,565.43 517.00,564.92 C517.00,564.42 517.91,564.00 519.03,564.00 C520.15,564.00 521.32,563.33 521.64,562.50 C521.95,561.67 522.81,561.00 523.54,561.00 C524.26,561.00 525.47,560.38 526.23,559.63 C526.98,558.88 528.58,557.95 529.80,557.56 C531.01,557.18 532.00,556.45 532.00,555.93 C532.00,555.42 532.67,555.00 533.50,555.00 C534.33,555.00 535.00,554.58 535.00,554.07 C535.00,553.55 535.99,552.82 537.20,552.44 C538.42,552.05 540.02,551.12 540.77,550.37 C541.53,549.62 542.79,549.00 543.57,549.00 C544.36,549.00 545.00,548.55 545.00,548.00 C545.00,547.45 545.67,547.00 546.50,547.00 C547.33,547.00 548.00,546.58 548.00,546.08 C548.00,545.57 549.58,544.64 551.50,544.00 C553.42,543.36 555.00,542.43 555.00,541.92 C555.00,541.42 555.67,541.00 556.50,541.00 C557.33,541.00 558.00,540.58 558.00,540.07 C558.00,539.55 558.99,538.82 560.20,538.44 C561.42,538.05 563.02,537.12 563.77,536.37 C564.53,535.62 565.79,535.00 566.57,535.00 C567.36,535.00 568.00,534.56 568.00,534.02 C568.00,533.48 569.12,532.76 570.50,532.41 C571.88,532.07 573.00,531.37 573.00,530.87 C573.00,530.36 574.17,529.51 575.60,528.96 C577.02,528.42 578.43,527.08 578.71,525.99 C579.00,524.89 579.71,524.00 580.28,524.00 C580.86,524.00 581.05,523.72 580.71,523.38 C580.37,523.04 580.76,522.09 581.58,521.28 C582.42,520.43 582.81,518.97 582.47,517.89 C582.13,516.84 582.34,516.00 582.93,516.00 C584.26,516.00 584.36,509.34 583.04,508.53 C582.52,508.20 582.34,507.28 582.65,506.47 C582.96,505.66 582.69,505.00 582.05,505.00 C581.41,505.00 581.20,504.48 581.59,503.85 C581.99,503.21 581.48,502.09 580.46,501.35 C579.45,500.61 578.96,500.00 579.38,500.00 C579.80,500.00 578.47,498.42 576.43,496.50 C574.39,494.58 572.33,493.00 571.86,493.00 C571.39,493.00 571.00,492.55 571.00,492.00 C571.00,491.45 570.39,491.00 569.65,491.00 C568.91,491.00 566.44,489.65 564.16,488.00 C561.88,486.35 559.56,485.00 559.01,485.00 C558.45,485.00 558.00,484.55 558.00,484.00 C558.00,483.45 557.39,483.00 556.65,483.00 C555.91,483.00 554.27,482.10 553.00,481.00 C551.73,479.90 550.16,479.00 549.50,479.00 C548.84,479.00 547.27,478.10 546.00,477.00 C544.73,475.90 543.09,475.00 542.35,475.00 C541.61,475.00 541.00,474.61 541.00,474.14 C541.00,473.67 538.87,472.20 536.28,470.89 C533.68,469.58 530.95,467.94 530.20,467.25 C529.46,466.56 528.21,466.00 527.43,466.00 C526.64,466.00 526.00,465.65 526.00,465.22 C526.00,464.79 524.76,463.91 523.25,463.26 C520.17,461.93 517.25,460.11 515.22,458.25 C514.47,457.56 513.21,457.00 512.43,457.00 C511.64,457.00 511.00,456.62 511.00,456.16 C511.00,455.70 508.41,454.04 505.25,452.46 C502.09,450.88 499.27,449.29 499.00,448.93 C498.73,448.57 497.49,447.95 496.25,447.57 C495.01,447.18 494.00,446.45 494.00,445.93 C494.00,445.42 493.39,445.00 492.65,445.00 C491.91,445.00 490.27,444.10 489.00,443.00 C487.73,441.90 486.09,441.00 485.35,441.00 C484.61,441.00 484.00,440.59 484.00,440.10 C484.00,439.60 482.76,438.70 481.25,438.09 C479.74,437.49 477.15,436.10 475.50,435.00 C473.85,433.90 471.26,432.51 469.75,431.91 C468.24,431.30 467.00,430.44 467.00,430.00 C467.00,429.56 465.76,428.68 464.25,428.04 C459.68,426.12 457.00,424.56 457.00,423.84 C457.00,423.46 455.42,422.64 453.50,422.00 C451.58,421.36 450.00,420.43 450.00,419.92 C450.00,419.42 449.36,419.00 448.57,419.00 C447.79,419.00 446.53,418.38 445.77,417.63 C445.02,416.88 443.42,415.95 442.20,415.56 C440.99,415.18 440.00,414.48 440.00,414.01 C440.00,413.54 438.42,412.64 436.50,412.00 C434.58,411.36 433.00,410.43 433.00,409.92 C433.00,409.42 432.39,409.00 431.65,409.00 C430.91,409.00 429.27,408.10 428.00,407.00 C426.73,405.90 425.13,405.00 424.43,405.00 C423.74,405.00 423.02,404.66 422.83,404.25 C422.65,403.84 420.30,402.39 417.61,401.03 C414.91,399.68 412.20,398.10 411.57,397.53 C410.94,396.97 407.86,395.17 404.72,393.54 C401.57,391.90 399.00,390.22 399.00,389.79 C399.00,389.35 398.36,389.00 397.57,389.00 C396.79,389.00 395.47,388.33 394.65,387.50 C393.82,386.68 392.10,385.55 390.83,384.98 C389.55,384.41 386.70,382.86 384.50,381.52 C382.30,380.18 379.26,378.57 377.75,377.94 C376.24,377.32 375.00,376.40 375.00,375.90 C375.00,375.41 374.36,375.00 373.57,375.00 C372.79,375.00 371.53,374.38 370.77,373.63 C370.02,372.88 368.42,371.95 367.20,371.56 C365.99,371.18 365.00,370.45 365.00,369.93 C365.00,369.42 364.33,369.00 363.50,369.00 C362.67,369.00 362.00,368.62 362.00,368.15 C362.00,367.69 360.31,366.57 358.25,365.67 C352.61,363.20 345.54,359.04 345.17,357.96 C344.98,357.43 344.26,357.00 343.57,357.00 C342.87,357.00 341.27,356.10 340.01,355.01 C335.56,351.15 323.49,349.02 317.41,351.03 C312.84,352.54 309.16,356.07 306.78,361.23 C305.17,364.69 305.05,375.10 304.98,512.73 C304.91,640.76 305.10,661.15 306.39,665.37 C308.06,670.83 311.43,675.00 314.17,675.00 C315.18,675.00 316.00,675.48 316.00,676.06 C316.00,676.64 316.45,676.84 317.00,676.50 C317.55,676.16 318.00,676.25 318.00,676.69 ZM 238.75 788.31 C239.71,788.56 353.85,788.82 492.38,788.88 C750.87,789.00 751.30,789.00 752.71,785.31 C752.99,784.59 753.76,784.00 754.43,784.00 C755.85,784.00 760.80,779.01 759.42,778.97 C758.92,778.95 759.28,778.48 760.23,777.93 C763.18,776.21 764.91,767.54 764.60,756.05 C764.41,749.23 763.91,745.47 763.15,745.22 C762.51,745.00 762.28,744.35 762.65,743.76 C763.01,743.18 762.48,742.09 761.46,741.35 C760.45,740.61 759.96,740.00 760.38,740.00 C761.63,740.00 754.39,733.64 751.00,731.76 C748.04,730.11 733.39,730.01 492.41,729.99 C265.19,729.97 236.63,730.14 234.00,731.50 C229.86,733.64 223.02,741.00 222.39,744.00 C222.10,745.37 221.44,747.53 220.93,748.80 C219.19,753.09 219.84,766.49 222.07,772.46 C223.21,775.51 224.51,778.00 224.96,778.00 C225.40,778.00 225.99,778.86 226.27,779.91 C226.85,782.14 234.62,787.36 236.04,786.48 C236.57,786.15 237.00,786.33 237.00,786.87 C237.00,787.41 237.79,788.06 238.75,788.31 ZM 484.25 312.28 C621.34,312.44 736.88,312.38 741.00,312.15 C749.03,311.71 753.00,310.67 753.00,309.02 C753.00,308.46 753.63,308.00 754.40,308.00 C756.91,308.00 761.91,301.11 763.59,295.35 C765.52,288.70 765.24,270.91 763.19,270.23 C762.53,270.01 762.24,269.43 762.54,268.94 C763.22,267.83 761.43,264.25 758.69,261.24 C757.56,259.99 754.18,257.86 751.19,256.49 L 745.76 254.00 L 237.42 254.00 L 233.02 256.25 C227.77,258.93 223.25,264.31 221.77,269.63 C219.81,276.68 219.68,290.72 221.52,296.35 C223.13,301.28 228.72,309.61 229.74,308.59 C230.01,308.32 230.90,308.75 231.70,309.56 C232.50,310.36 233.57,310.76 234.08,310.45 C234.59,310.14 235.00,310.36 235.00,310.94 C235.00,311.68 309.96,312.08 484.25,312.28 ZM 619.50 628.42 C625.48,629.86 647.00,626.45 647.00,624.06 C647.00,623.59 649.02,622.37 651.50,621.35 C653.97,620.33 655.99,619.16 656.00,618.75 C656.00,618.34 656.67,618.00 657.50,618.00 C658.33,618.00 659.00,617.55 659.00,617.00 C659.00,616.45 659.58,616.00 660.29,616.00 C661.78,616.00 670.90,607.02 669.46,606.97 C668.93,606.95 669.30,606.48 670.27,605.91 C671.25,605.34 671.81,604.50 671.53,604.04 C671.24,603.58 671.71,602.94 672.57,602.61 C673.43,602.28 673.88,601.61 673.57,601.11 C673.26,600.62 673.73,599.93 674.61,599.60 C675.49,599.26 675.96,598.34 675.66,597.56 C675.36,596.77 675.55,595.98 676.09,595.80 C676.63,595.62 677.84,593.46 678.78,590.99 C680.33,586.94 680.55,579.15 681.00,511.00 C681.49,437.51 681.55,435.41 683.52,432.00 C686.32,427.16 691.78,424.69 705.66,421.99 C712.17,420.72 717.79,419.24 718.14,418.71 C718.49,418.18 719.23,418.02 719.78,418.36 C720.82,419.01 766.12,410.04 767.00,409.02 C767.28,408.70 768.62,408.39 770.00,408.34 C771.38,408.29 776.21,407.65 780.74,406.92 C788.58,405.66 789.11,405.70 791.70,407.62 C793.19,408.74 794.77,411.05 795.22,412.75 C795.66,414.46 795.90,436.25 795.76,461.18 C795.50,505.86 795.47,506.50 793.50,506.21 C792.40,506.05 790.60,505.55 789.50,505.10 C783.59,502.67 779.37,502.00 769.42,501.93 C763.38,501.88 757.33,502.28 755.97,502.82 C754.61,503.35 751.59,504.36 749.25,505.06 C746.91,505.75 745.00,506.59 745.00,506.92 C745.00,507.24 743.63,508.12 741.95,508.86 C739.11,510.12 727.00,521.15 727.00,522.49 C727.00,522.81 726.14,524.01 725.09,525.14 C724.04,526.27 721.95,531.03 720.46,535.71 C717.42,545.27 717.39,554.06 720.38,560.05 C721.27,561.84 722.00,563.91 722.00,564.65 C722.00,565.39 722.45,566.00 723.00,566.00 C723.55,566.00 724.00,566.72 724.00,567.60 C724.00,569.61 736.82,582.23 738.08,581.45 C738.58,581.14 739.00,581.39 739.00,582.00 C739.00,582.61 739.45,582.84 740.00,582.50 C740.55,582.16 741.00,582.34 741.00,582.90 C741.00,585.00 753.95,588.00 763.03,588.00 C771.68,588.00 782.00,586.34 782.00,584.95 C782.00,584.57 783.08,584.25 784.41,584.25 C787.26,584.25 797.92,578.37 798.68,576.38 C798.98,575.62 799.79,575.00 800.50,575.00 C802.26,575.00 813.17,563.08 812.46,561.93 C812.14,561.42 812.39,561.00 813.00,561.00 C813.61,561.00 813.84,560.55 813.50,560.00 C813.16,559.45 813.39,559.00 814.00,559.00 C814.61,559.00 814.84,558.55 814.50,558.00 C814.16,557.45 814.39,557.00 815.00,557.00 C815.61,557.00 815.84,556.55 815.50,556.00 C815.16,555.45 815.39,555.00 816.00,555.00 C816.61,555.00 816.86,554.59 816.55,554.09 C816.24,553.58 816.45,553.02 817.02,552.83 C818.86,552.21 821.02,541.81 820.36,536.75 C819.94,533.52 820.10,532.00 820.87,532.00 C821.70,532.00 822.00,508.44 822.00,443.00 C822.00,377.23 821.70,354.00 820.86,354.00 C820.09,354.00 819.93,352.55 820.34,349.50 C820.73,346.66 820.58,345.00 819.92,345.00 C819.35,345.00 819.17,344.53 819.53,343.96 C820.47,342.43 817.38,338.21 813.70,335.96 C809.16,333.19 799.07,333.41 783.89,336.61 C777.07,338.05 769.25,339.59 766.50,340.04 C763.75,340.49 759.25,341.34 756.50,341.94 C753.75,342.53 750.15,343.27 748.50,343.58 C739.09,345.33 723.38,348.45 708.00,351.62 C685.84,356.20 683.38,356.68 678.50,357.46 C667.63,359.20 661.40,362.53 658.25,368.30 C656.63,371.26 656.46,378.11 656.00,458.50 C655.50,544.78 655.48,545.50 653.50,545.22 C652.40,545.06 648.42,544.41 644.67,543.78 C636.55,542.40 619.99,543.86 614.89,546.41 C613.13,547.28 611.16,548.00 610.50,548.00 C609.84,548.00 608.27,548.90 607.00,550.00 C605.73,551.10 604.09,552.00 603.35,552.00 C602.61,552.00 602.00,552.45 602.00,553.00 C602.00,553.55 601.37,554.00 600.59,554.00 C598.85,554.00 590.00,563.70 590.00,565.61 C590.00,566.37 589.61,567.00 589.12,567.00 C588.64,567.00 587.21,569.36 585.94,572.25 C582.82,579.38 582.57,594.00 585.45,601.75 C586.52,604.64 587.76,607.00 588.20,607.00 C588.64,607.00 589.00,607.67 589.00,608.50 C589.00,609.33 589.45,610.00 590.00,610.00 C590.55,610.00 591.00,610.58 591.00,611.30 C591.00,612.79 598.98,620.90 599.03,619.45 C599.05,618.93 599.52,619.30 600.09,620.27 C600.66,621.25 601.55,621.78 602.06,621.46 C602.58,621.14 603.00,621.33 603.00,621.87 C603.00,622.87 606.84,624.57 608.25,624.20 C608.66,624.09 609.00,624.39 609.00,624.87 C609.00,625.63 611.68,626.53 619.50,628.42 ZM 394.62 670.20 C394.91,670.66 445.40,670.92 506.82,670.77 L 618.50 670.50 L 624.25 667.81 C627.41,666.32 630.00,664.68 630.00,664.16 C630.00,663.64 631.12,662.93 632.50,662.59 C633.88,662.24 635.00,661.28 635.00,660.44 C635.00,659.20 634.29,659.06 631.25,659.70 C626.32,660.75 610.25,660.42 607.59,659.22 C596.92,654.41 587.27,649.24 586.19,647.78 C585.47,646.80 584.52,646.00 584.06,646.00 C583.10,646.00 575.13,638.21 575.60,637.73 C575.78,637.56 574.20,635.53 572.10,633.23 C570.00,630.93 568.51,628.83 568.78,628.55 C569.06,628.27 568.55,627.76 567.65,627.42 C566.75,627.07 566.23,626.44 566.49,626.02 C567.15,624.94 559.13,616.00 557.50,616.00 C556.77,616.00 556.02,615.56 555.83,615.03 C555.18,613.12 540.16,611.94 518.01,612.06 C497.38,612.18 494.94,612.38 488.82,614.47 C485.14,615.72 480.92,617.71 479.43,618.87 C477.95,620.04 476.12,621.00 475.37,621.00 C474.61,621.00 474.00,621.45 474.00,622.00 C474.00,622.55 473.18,623.00 472.19,623.00 C471.19,623.00 469.50,623.79 468.44,624.75 C467.37,625.71 464.92,627.28 463.00,628.23 C458.12,630.64 450.79,634.96 449.00,636.48 C448.17,637.19 446.49,638.07 445.25,638.45 C444.01,638.83 443.00,639.51 443.00,639.96 C443.00,640.41 441.91,641.06 440.57,641.39 C439.23,641.73 437.55,642.56 436.82,643.25 C436.09,643.94 432.47,646.08 428.76,648.00 C425.05,649.92 422.01,651.84 422.01,652.25 C422.00,652.66 421.36,653.00 420.57,653.00 C419.79,653.00 418.53,653.62 417.77,654.37 C417.02,655.12 415.42,656.05 414.20,656.44 C412.99,656.82 412.00,657.55 412.00,658.07 C412.00,658.58 411.36,659.00 410.57,659.00 C409.79,659.00 408.55,659.58 407.82,660.29 C407.09,661.00 405.04,662.18 403.25,662.91 C401.46,663.64 400.00,664.64 400.00,665.12 C400.00,665.60 399.56,666.00 399.01,666.00 C397.46,666.00 394.05,669.26 394.62,670.20 ZM 594.90 429.93 C609.04,426.90 616.95,412.03 613.90,394.22 C611.99,383.11 608.79,378.42 600.00,373.84 L 595.50 371.50 L 509.30 371.27 C445.67,371.09 422.91,371.33 422.40,372.17 C422.01,372.80 422.10,373.06 422.60,372.76 C423.09,372.46 424.13,372.89 424.90,373.72 C426.12,375.04 425.99,375.14 423.90,374.56 C422.58,374.19 424.20,375.41 427.50,377.26 C430.80,379.12 435.08,381.57 437.00,382.71 C440.78,384.95 471.59,402.81 487.00,411.69 C492.23,414.70 498.75,418.54 501.50,420.23 C504.25,421.91 509.65,425.02 513.50,427.13 L 520.50 430.97 L 555.20 430.99 C576.17,430.99 591.88,430.58 594.90,429.93 ZM 259.75 551.01 L 270.00 551.00 L 270.00 522.61 C270.00,497.64 269.81,494.14 268.42,493.61 C264.97,492.28 239.40,492.99 234.14,494.55 C224.06,497.54 219.00,506.60 219.00,521.63 C219.00,535.23 222.83,544.95 229.69,548.80 C232.53,550.39 243.80,552.02 247.50,551.38 C248.60,551.18 254.11,551.02 259.75,551.01 ZM 270.18 668.25 C270.36,666.74 270.27,653.80 270.00,639.50 L 269.50 613.50 L 253.90 613.23 C245.33,613.07 237.23,613.38 235.90,613.91 C234.22,614.58 238.84,614.89 251.25,614.94 L 269.00 615.00 L 251.90 615.00 C238.21,615.00 234.12,615.32 231.39,616.62 C229.48,617.52 227.74,618.83 226.26,620.43 C227.31,619.26 228.52,618.22 229.92,617.27 C231.78,616.02 232.85,615.00 232.30,615.00 C229.68,615.00 224.26,620.04 222.05,624.53 C220.17,628.34 219.50,631.58 219.17,638.39 C218.39,654.70 222.42,663.96 232.31,668.56 C237.12,670.80 238.68,670.98 253.68,670.99 L 269.87 671.00 ZM 233.79 429.42 C237.21,430.48 242.75,430.83 254.00,430.69 L 269.50 430.50 L 269.77 402.85 L 270.03 375.19 L 259.36 374.47 C247.19,373.64 233.65,375.12 228.83,377.81 C223.77,380.64 220.67,387.86 220.20,397.93 C219.77,406.87 221.31,418.26 223.01,418.83 C223.56,419.02 224.00,419.65 224.00,420.24 C224.00,423.05 229.31,428.04 233.79,429.42 ZM 510.50 424.05 C502.73,419.43 479.83,406.10 461.50,395.53 C439.13,382.62 427.47,375.80 427.03,375.36 C426.73,375.07 426.76,374.80 427.27,374.57 C426.98,374.89 426.87,375.18 427.03,375.33 C427.29,375.56 436.73,381.07 448.00,387.57 C459.27,394.06 479.94,406.04 493.93,414.19 L 519.01 428.80 L 518.50 428.79 ZM 597.08 374.01 C598.47,374.27 599.20,374.59 600.00,375.00 C609.46,379.82 613.40,388.46 612.78,403.00 C612.66,405.94 612.43,408.44 612.04,410.61 C612.37,408.25 612.50,405.45 612.50,402.00 C612.50,394.22 612.03,390.27 610.67,386.76 C608.55,381.27 602.40,375.49 597.08,374.01 ZM 518.14 373.01 C576.26,373.01 591.17,373.06 596.64,373.93 C591.88,373.36 555.74,373.05 518.14,373.01 ZM 221.08 632.54 C220.42,638.35 220.49,646.82 221.28,652.13 C219.98,646.59 219.82,639.97 220.96,633.21 C221.00,632.98 221.04,632.76 221.08,632.54 ZM 224.17 659.71 C226.93,663.81 231.36,667.43 235.46,668.63 C231.18,667.71 229.21,666.01 226.20,662.58 C225.46,661.73 224.78,660.77 224.17,659.71 ZM 233.17 549.28 C231.30,548.93 228.99,547.19 226.92,544.88 C228.07,546.03 229.41,546.97 230.96,547.75 C232.73,548.64 234.05,549.18 236.22,549.51 C234.64,549.44 233.56,549.36 233.17,549.28 ZM 224.61 541.89 C223.42,540.11 222.48,538.21 221.98,536.43 C221.58,535.01 221.22,532.48 220.96,529.59 C221.71,534.98 222.85,538.93 224.61,541.89 ZM 269.00 670.23 L 255.75 669.90 L 269.00 670.00 ZM 220.65 516.18 C220.81,512.08 221.29,510.16 222.73,507.10 C221.71,509.78 221.01,512.85 220.65,516.18 ZM 443.91 373.37 C453.76,373.16 468.78,373.07 491.17,373.03 C472.66,373.08 455.62,373.19 443.91,373.37 ZM 225.66 501.57 C227.07,499.37 228.56,497.96 230.94,497.04 C230.62,497.20 230.31,497.37 230.00,497.55 C228.36,498.51 226.91,499.87 225.66,501.57 ZM 605.34 423.20 C602.65,425.75 601.01,427.18 596.30,427.97 C601.00,427.17 602.66,425.74 605.34,423.20 Z" fill="rgb(19,52,77)"/>
<path d="M 238.75 788.31 C237.79,788.06 237.00,787.41 237.00,786.87 C237.00,786.33 236.57,786.15 236.04,786.48 C234.62,787.36 226.85,782.14 226.27,779.91 C225.99,778.86 225.40,778.00 224.96,778.00 C224.51,778.00 223.21,775.51 222.07,772.46 C219.84,766.49 219.19,753.09 220.93,748.80 C221.44,747.53 222.10,745.37 222.39,744.00 C223.02,741.00 229.86,733.64 234.00,731.50 C236.63,730.14 265.19,729.97 492.41,729.99 C733.39,730.01 748.04,730.11 751.00,731.76 C754.39,733.64 761.63,740.00 760.38,740.00 C759.96,740.00 760.45,740.61 761.46,741.35 C762.48,742.09 763.01,743.18 762.65,743.76 C762.28,744.35 762.51,745.00 763.15,745.22 C763.91,745.47 764.41,749.23 764.60,756.05 C764.91,767.54 763.18,776.21 760.23,777.93 C759.28,778.48 758.92,778.95 759.42,778.97 C760.80,779.01 755.85,784.00 754.43,784.00 C753.76,784.00 752.99,784.59 752.71,785.31 C751.30,789.00 750.87,789.00 492.38,788.88 C353.85,788.82 239.71,788.56 238.75,788.31 ZM 484.25 312.28 C309.96,312.08 235.00,311.68 235.00,310.94 C235.00,310.36 234.59,310.14 234.08,310.45 C233.57,310.76 232.50,310.36 231.70,309.56 C230.90,308.75 230.01,308.32 229.74,308.59 C228.72,309.61 223.13,301.28 221.52,296.35 C219.68,290.72 219.81,276.68 221.77,269.63 C223.25,264.31 227.77,258.93 233.02,256.25 L 237.42 254.00 L 745.76 254.00 L 751.19 256.49 C754.18,257.86 757.56,259.99 758.69,261.24 C761.43,264.25 763.22,267.83 762.54,268.94 C762.24,269.43 762.53,270.01 763.19,270.23 C765.24,270.91 765.52,288.70 763.59,295.35 C761.91,301.11 756.91,308.00 754.40,308.00 C753.63,308.00 753.00,308.46 753.00,309.02 C753.00,310.67 749.03,311.71 741.00,312.15 C736.88,312.38 621.34,312.44 484.25,312.28 ZM 619.50 628.42 C611.68,626.53 609.00,625.63 609.00,624.87 C609.00,624.39 608.66,624.09 608.25,624.20 C606.84,624.57 603.00,622.87 603.00,621.87 C603.00,621.33 602.58,621.14 602.06,621.46 C601.55,621.78 600.66,621.25 600.09,620.27 C599.52,619.30 599.05,618.93 599.03,619.45 C598.98,620.90 591.00,612.79 591.00,611.30 C591.00,610.58 590.55,610.00 590.00,610.00 C589.45,610.00 589.00,609.33 589.00,608.50 C589.00,607.67 588.64,607.00 588.20,607.00 C587.76,607.00 586.52,604.64 585.45,601.75 C582.57,594.00 582.82,579.38 585.94,572.25 C587.21,569.36 588.64,567.00 589.12,567.00 C589.61,567.00 590.00,566.37 590.00,565.61 C590.00,563.70 598.85,554.00 600.59,554.00 C601.37,554.00 602.00,553.55 602.00,553.00 C602.00,552.45 602.61,552.00 603.35,552.00 C604.09,552.00 605.73,551.10 607.00,550.00 C608.27,548.90 609.84,548.00 610.50,548.00 C611.16,548.00 613.13,547.28 614.89,546.41 C619.99,543.86 636.55,542.40 644.67,543.78 C648.42,544.41 652.40,545.06 653.50,545.22 C655.48,545.50 655.50,544.78 656.00,458.50 C656.46,378.11 656.63,371.26 658.25,368.30 C661.40,362.53 667.63,359.20 678.50,357.46 C683.38,356.68 685.84,356.20 708.00,351.62 C723.38,348.45 739.09,345.33 748.50,343.58 C750.15,343.27 753.75,342.53 756.50,341.94 C759.25,341.34 763.75,340.49 766.50,340.04 C769.25,339.59 777.07,338.05 783.89,336.61 C799.07,333.41 809.16,333.19 813.70,335.96 C817.38,338.21 820.47,342.43 819.53,343.96 C819.17,344.53 819.35,345.00 819.92,345.00 C820.58,345.00 820.73,346.66 820.34,349.50 C819.93,352.55 820.09,354.00 820.86,354.00 C821.70,354.00 822.00,377.23 822.00,443.00 C822.00,508.44 821.70,532.00 820.87,532.00 C820.10,532.00 819.94,533.52 820.36,536.75 C821.02,541.81 818.86,552.21 817.02,552.83 C816.45,553.02 816.24,553.58 816.55,554.09 C816.86,554.59 816.61,555.00 816.00,555.00 C815.39,555.00 815.16,555.45 815.50,556.00 C815.84,556.55 815.61,557.00 815.00,557.00 C814.39,557.00 814.16,557.45 814.50,558.00 C814.84,558.55 814.61,559.00 814.00,559.00 C813.39,559.00 813.16,559.45 813.50,560.00 C813.84,560.55 813.61,561.00 813.00,561.00 C812.39,561.00 812.14,561.42 812.46,561.93 C813.17,563.08 802.26,575.00 800.50,575.00 C799.79,575.00 798.98,575.62 798.68,576.38 C797.92,578.37 787.26,584.25 784.41,584.25 C783.08,584.25 782.00,584.57 782.00,584.95 C782.00,586.34 771.68,588.00 763.03,588.00 C753.95,588.00 741.00,585.00 741.00,582.90 C741.00,582.34 740.55,582.16 740.00,582.50 C739.45,582.84 739.00,582.61 739.00,582.00 C739.00,581.39 738.58,581.14 738.08,581.45 C736.82,582.23 724.00,569.61 724.00,567.60 C724.00,566.72 723.55,566.00 723.00,566.00 C722.45,566.00 722.00,565.39 722.00,564.65 C722.00,563.91 721.27,561.84 720.38,560.05 C717.39,554.06 717.42,545.27 720.46,535.71 C721.95,531.03 724.04,526.27 725.09,525.14 C726.14,524.01 727.00,522.81 727.00,522.49 C727.00,521.15 739.11,510.12 741.95,508.86 C743.63,508.12 745.00,507.24 745.00,506.92 C745.00,506.59 746.91,505.75 749.25,505.06 C751.59,504.36 754.61,503.35 755.97,502.82 C757.33,502.28 763.38,501.88 769.42,501.93 C779.37,502.00 783.59,502.67 789.50,505.10 C790.60,505.55 792.40,506.05 793.50,506.21 C795.47,506.50 795.50,505.86 795.76,461.18 C795.90,436.25 795.66,414.46 795.22,412.75 C794.77,411.05 793.19,408.74 791.70,407.62 C789.11,405.70 788.58,405.66 780.74,406.92 C776.21,407.65 771.38,408.29 770.00,408.34 C768.62,408.39 767.28,408.70 767.00,409.02 C766.12,410.04 720.82,419.01 719.78,418.36 C719.23,418.02 718.49,418.18 718.14,418.71 C717.79,419.24 712.17,420.72 705.66,421.99 C691.78,424.69 686.32,427.16 683.52,432.00 C681.55,435.41 681.49,437.51 681.00,511.00 C680.55,579.15 680.33,586.94 678.78,590.99 C677.84,593.46 676.63,595.62 676.09,595.80 C675.55,595.98 675.36,596.77 675.66,597.56 C675.96,598.34 675.49,599.26 674.61,599.60 C673.73,599.93 673.26,600.62 673.57,601.11 C673.88,601.61 673.43,602.28 672.57,602.61 C671.71,602.94 671.24,603.58 671.53,604.04 C671.81,604.50 671.25,605.34 670.27,605.91 C669.30,606.48 668.93,606.95 669.46,606.97 C670.90,607.02 661.78,616.00 660.29,616.00 C659.58,616.00 659.00,616.45 659.00,617.00 C659.00,617.55 658.33,618.00 657.50,618.00 C656.67,618.00 656.00,618.34 656.00,618.75 C655.99,619.16 653.97,620.33 651.50,621.35 C649.02,622.37 647.00,623.59 647.00,624.06 C647.00,626.45 625.48,629.86 619.50,628.42 ZM 394.62 670.20 C394.05,669.26 397.46,666.00 399.01,666.00 C399.56,666.00 400.00,665.60 400.00,665.12 C400.00,664.64 401.46,663.64 403.25,662.91 C405.04,662.18 407.09,661.00 407.82,660.29 C408.55,659.58 409.79,659.00 410.57,659.00 C411.36,659.00 412.00,658.58 412.00,658.07 C412.00,657.55 412.99,656.82 414.20,656.44 C415.42,656.05 417.02,655.12 417.77,654.37 C418.53,653.62 419.79,653.00 420.57,653.00 C421.36,653.00 422.00,652.66 422.01,652.25 C422.01,651.84 425.05,649.92 428.76,648.00 C432.47,646.08 436.09,643.94 436.82,643.25 C437.55,642.56 439.23,641.73 440.57,641.39 C441.91,641.06 443.00,640.41 443.00,639.96 C443.00,639.51 444.01,638.83 445.25,638.45 C446.49,638.07 448.17,637.19 449.00,636.48 C450.79,634.96 458.12,630.64 463.00,628.23 C464.92,627.28 467.37,625.71 468.44,624.75 C469.50,623.79 471.19,623.00 472.19,623.00 C473.18,623.00 474.00,622.55 474.00,622.00 C474.00,621.45 474.61,621.00 475.37,621.00 C476.12,621.00 477.95,620.04 479.43,618.87 C480.92,617.71 485.14,615.72 488.82,614.47 C494.94,612.38 497.38,612.18 518.01,612.06 C540.16,611.94 555.18,613.12 555.83,615.03 C556.02,615.56 556.77,616.00 557.50,616.00 C559.13,616.00 567.15,624.94 566.49,626.02 C566.23,626.44 566.75,627.07 567.65,627.42 C568.55,627.76 569.06,628.27 568.78,628.55 C568.51,628.83 570.00,630.93 572.10,633.23 C574.20,635.53 575.78,637.56 575.60,637.73 C575.13,638.21 583.10,646.00 584.06,646.00 C584.52,646.00 585.47,646.80 586.19,647.78 C587.27,649.24 596.92,654.41 607.59,659.22 C610.25,660.42 626.32,660.75 631.25,659.70 C634.29,659.06 635.00,659.20 635.00,660.44 C635.00,661.28 633.88,662.24 632.50,662.59 C631.12,662.93 630.00,663.64 630.00,664.16 C630.00,664.68 627.41,666.32 624.25,667.81 L 618.50 670.50 L 506.82 670.77 C445.40,670.92 394.91,670.66 394.62,670.20 ZM 597.08 374.01 C602.40,375.49 608.55,381.27 610.67,386.76 C612.03,390.27 612.50,394.22 612.50,402.00 C612.50,405.45 612.37,408.25 612.04,410.61 C611.06,416.15 609.09,419.64 605.34,423.20 C602.65,425.75 601.01,427.18 596.30,427.97 L 596.30 427.97 C590.45,428.96 579.89,428.96 556.78,428.90 L 519.01 428.80 L 493.93 414.19 C479.94,406.04 459.27,394.06 448.00,387.57 C436.73,381.07 427.29,375.56 427.03,375.33 C426.87,375.18 426.98,374.89 427.27,374.57 C428.60,373.98 433.20,373.61 443.91,373.37 C455.61,373.19 472.65,373.08 491.16,373.03 L 491.17 373.03 C497.73,373.02 504.92,373.02 512.79,373.02 C514.61,373.01 516.40,373.01 518.14,373.01 L 518.14 373.01 C555.75,373.05 591.88,373.36 596.64,373.93 C596.79,373.95 596.94,373.98 597.08,374.01 ZM 233.79 429.42 C229.31,428.04 224.00,423.05 224.00,420.24 C224.00,419.65 223.56,419.02 223.01,418.83 C221.31,418.26 219.77,406.87 220.20,397.93 C220.67,387.86 223.77,380.64 228.83,377.81 C233.65,375.12 247.19,373.64 259.36,374.47 L 270.03 375.19 L 269.77 402.85 L 269.50 430.50 L 254.00 430.69 C242.75,430.83 237.21,430.48 233.79,429.42 ZM 224.61 541.89 C222.85,538.93 221.71,534.98 220.96,529.59 C220.73,526.97 220.59,524.06 220.59,521.42 C220.59,519.31 220.60,517.61 220.65,516.18 C221.01,512.85 221.71,509.78 222.73,507.10 C222.97,506.58 223.24,506.03 223.54,505.43 C224.29,503.93 224.97,502.65 225.66,501.57 C226.91,499.87 228.36,498.51 230.00,497.55 C230.31,497.37 230.62,497.20 230.94,497.04 C234.60,495.63 240.38,495.37 251.25,495.17 L 269.00 494.84 L 269.00 550.00 L 252.25 549.86 C245.86,549.81 239.78,549.67 236.22,549.51 C234.05,549.18 232.73,548.64 230.96,547.75 C229.41,546.97 228.07,546.03 226.92,544.88 C226.10,543.96 225.31,542.95 224.61,541.89 ZM 221.08 632.54 C222.06,627.14 223.65,623.36 226.26,620.43 C227.74,618.83 229.48,617.52 231.39,616.62 C234.12,615.32 238.21,615.00 251.90,615.00 L 269.00 615.00 L 269.00 670.00 L 255.76 669.90 L 255.75 669.90 L 252.25 669.81 C243.93,669.61 238.94,669.38 235.46,668.63 C231.36,667.43 226.93,663.81 224.17,659.71 C222.92,657.55 221.95,654.98 221.28,652.13 C220.49,646.82 220.42,638.35 221.08,632.54 Z" fill="rgb(245,198,50)"/>
<path d="M 0.00 512.00 L 0.00 0.00 L 512.00 0.00 L 1024.00 0.00 L 1024.00 512.00 L 1024.00 1024.00 L 512.00 1024.00 L 0.00 1024.00 L 0.00 512.00 ZM 796.50 881.19 C800.90,879.95 805.40,878.55 806.50,878.09 C807.60,877.62 811.76,875.99 815.75,874.46 C819.74,872.93 823.00,871.30 823.00,870.84 C823.00,870.38 823.87,870.00 824.93,870.00 C825.99,870.00 827.47,869.38 828.23,868.63 C828.98,867.88 830.58,866.95 831.80,866.56 C833.01,866.18 834.00,865.45 834.00,864.93 C834.00,864.42 834.67,864.00 835.50,864.00 C836.33,864.00 837.00,863.60 837.00,863.12 C837.00,862.64 838.35,861.68 840.00,861.00 C841.65,860.32 843.00,859.36 843.00,858.88 C843.00,858.40 843.52,858.00 844.14,858.00 C845.44,858.00 845.77,857.70 859.73,843.84 C865.36,838.25 870.23,832.85 870.55,831.84 C870.87,830.83 871.55,830.00 872.07,830.00 C872.58,830.00 873.00,829.53 873.00,828.96 C873.00,828.39 873.93,826.92 875.07,825.71 C877.97,822.61 888.98,799.91 889.68,795.58 C890.00,793.61 890.58,792.00 890.97,792.00 C891.36,792.00 892.53,788.29 893.59,783.75 C895.45,775.74 895.50,768.01 895.50,513.00 C895.50,260.35 895.43,250.20 893.63,242.50 C890.73,230.06 887.33,220.72 881.85,210.19 C877.43,201.68 875.42,198.50 870.37,192.04 C866.88,187.56 849.42,170.24 848.80,170.63 C848.39,170.87 847.49,170.16 846.79,169.04 C846.09,167.92 845.00,167.00 844.37,167.00 C843.73,167.00 842.94,166.30 842.61,165.44 C842.28,164.58 841.56,164.16 841.00,164.50 C840.44,164.84 839.72,164.43 839.39,163.57 C839.06,162.71 838.43,162.23 838.00,162.50 C837.57,162.77 836.94,162.29 836.61,161.43 C836.28,160.57 835.56,160.15 835.01,160.50 C834.45,160.84 834.00,160.61 834.00,160.00 C834.00,159.39 833.63,159.11 833.19,159.38 C832.74,159.66 831.10,158.79 829.53,157.44 C826.88,155.16 825.59,154.59 823.75,154.88 C823.34,154.95 823.00,154.52 823.00,153.94 C823.00,153.36 822.55,153.16 822.00,153.50 C821.45,153.84 821.00,153.61 821.00,153.00 C821.00,152.39 820.55,152.16 820.00,152.50 C819.45,152.84 819.00,152.64 819.00,152.06 C819.00,151.48 817.88,151.00 816.50,151.00 C815.12,151.00 814.00,150.56 814.00,150.03 C814.00,149.50 813.33,149.32 812.50,149.64 C811.67,149.95 811.00,149.69 811.00,149.05 C811.00,148.41 810.55,148.16 810.00,148.50 C809.45,148.84 809.00,148.66 809.00,148.09 C809.00,147.53 808.33,147.32 807.50,147.64 C806.67,147.95 806.00,147.73 806.00,147.14 C806.00,146.55 805.33,146.32 804.50,146.64 C803.67,146.95 803.00,146.69 803.00,146.04 C803.00,145.32 802.22,145.11 801.00,145.50 C799.88,145.86 799.00,145.68 799.00,145.10 C799.00,144.53 798.33,144.32 797.50,144.64 C796.67,144.95 796.00,144.71 796.00,144.09 C796.00,143.39 795.06,143.20 793.50,143.59 C791.99,143.97 791.00,143.79 791.00,143.13 C791.00,142.46 789.86,142.28 788.00,142.65 C786.03,143.04 785.00,142.85 785.00,142.08 C785.00,141.28 783.88,141.12 781.50,141.57 C779.21,142.00 778.00,141.84 778.00,141.11 C778.00,140.30 706.43,140.00 512.00,140.00 C315.24,140.00 246.00,140.29 246.00,141.13 C246.00,141.88 244.68,142.04 242.00,141.62 C239.39,141.20 238.00,141.35 238.00,142.07 C238.00,142.76 236.90,142.92 235.00,142.50 C233.03,142.07 232.00,142.23 232.00,142.99 C232.00,143.68 231.21,143.88 230.00,143.50 C228.80,143.12 228.00,143.32 228.00,144.00 C228.00,144.68 227.20,144.88 226.00,144.50 C224.90,144.15 224.00,144.30 224.00,144.84 C224.00,145.37 223.10,145.58 222.00,145.29 C220.90,145.00 220.00,145.26 220.00,145.85 C220.00,146.45 219.32,146.68 218.50,146.36 C217.68,146.05 217.00,146.27 217.00,146.86 C217.00,147.45 216.32,147.68 215.50,147.36 C214.68,147.05 214.00,147.28 214.00,147.89 C214.00,148.50 212.88,149.00 211.50,149.00 C210.12,149.00 209.00,149.45 209.00,150.00 C209.00,150.55 208.08,151.00 206.95,151.00 C204.98,151.00 199.04,153.60 198.00,154.91 C196.90,156.30 191.98,159.00 190.54,159.00 C189.69,159.00 189.00,159.45 189.00,160.00 C189.00,160.55 188.32,161.00 187.50,161.00 C186.68,161.00 186.00,161.45 186.00,162.00 C186.00,162.55 185.32,163.00 184.50,163.00 C183.68,163.00 183.00,163.45 183.00,164.00 C183.00,164.55 182.43,165.00 181.74,165.00 C181.05,165.00 179.92,165.90 179.23,167.00 C178.55,168.10 177.54,169.00 177.01,169.00 C175.80,169.00 157.63,187.22 157.84,188.23 C157.92,188.63 156.87,189.69 155.50,190.59 C154.14,191.49 153.25,192.60 153.54,193.06 C153.82,193.52 153.15,194.39 152.04,194.98 C150.93,195.57 150.11,196.38 150.22,196.78 C150.55,198.03 147.00,204.00 145.92,204.00 C145.35,204.00 145.16,204.45 145.50,205.00 C145.84,205.55 145.61,206.00 145.00,206.00 C144.39,206.00 144.16,206.45 144.50,207.00 C144.84,207.55 144.61,208.00 144.00,208.00 C143.39,208.00 143.16,208.45 143.50,209.00 C143.84,209.55 143.61,210.00 143.00,210.00 C142.39,210.00 142.16,210.45 142.50,211.01 C142.85,211.56 142.45,212.27 141.63,212.59 C140.80,212.91 140.35,213.75 140.62,214.45 C140.89,215.16 140.44,216.42 139.61,217.25 C138.77,218.08 138.37,219.04 138.71,219.38 C139.05,219.72 138.92,220.00 138.42,220.00 C137.91,220.00 137.43,221.18 137.35,222.63 C137.26,224.08 136.81,225.54 136.35,225.88 C135.88,226.22 135.49,226.95 135.48,227.50 C135.43,230.04 132.53,239.00 131.75,239.00 C131.27,239.00 131.17,239.47 131.53,240.05 C131.89,240.62 131.86,241.86 131.47,242.80 C131.08,243.73 130.54,245.85 130.27,247.50 C129.36,253.04 128.48,766.47 129.37,767.75 C129.86,768.44 129.98,770.35 129.65,772.00 C129.27,773.88 129.46,775.00 130.15,775.00 C130.84,775.00 131.03,776.12 130.65,778.00 C130.28,779.87 130.46,781.00 131.14,781.00 C131.74,781.00 132.00,781.88 131.72,782.95 C131.44,784.03 131.61,785.04 132.09,785.20 C132.57,785.37 133.17,787.08 133.42,789.00 C133.66,790.92 133.95,792.72 134.05,793.00 C134.15,793.28 134.18,793.84 134.12,794.25 C134.05,794.66 134.50,795.00 135.11,795.00 C135.72,795.00 135.95,795.67 135.64,796.50 C135.32,797.33 135.55,798.00 136.14,798.00 C136.73,798.00 136.97,798.65 136.66,799.44 C136.36,800.22 136.50,801.01 136.96,801.19 C137.43,801.36 137.97,802.40 138.16,803.50 C138.35,804.60 138.78,805.72 139.12,806.00 C140.46,807.08 144.87,816.79 144.29,817.38 C143.95,817.72 144.27,818.00 145.00,818.00 C145.73,818.00 146.06,818.27 145.73,818.61 C145.39,818.94 145.98,820.13 147.03,821.26 C148.07,822.38 148.72,823.64 148.47,824.05 C148.22,824.46 148.71,825.06 149.57,825.39 C150.43,825.72 150.88,826.39 150.57,826.89 C150.26,827.38 150.75,828.07 151.65,828.42 C152.55,828.76 153.00,829.33 152.65,829.68 C152.30,830.03 152.92,830.95 154.02,831.73 C155.13,832.50 155.82,833.48 155.56,833.91 C155.29,834.33 156.41,835.66 158.03,836.86 C159.66,838.07 160.90,839.37 160.81,839.77 C160.71,840.17 163.90,843.65 167.89,847.50 C171.88,851.35 176.18,855.51 177.44,856.75 C178.70,857.99 180.19,859.00 180.76,859.00 C181.32,859.00 182.05,859.67 182.36,860.50 C182.68,861.33 183.63,862.00 184.47,862.00 C185.31,862.00 186.00,862.45 186.00,863.00 C186.00,863.55 186.68,864.00 187.50,864.00 C188.32,864.00 189.00,864.36 189.00,864.80 C189.00,865.24 190.57,866.17 192.50,866.86 C194.43,867.56 196.00,868.47 196.00,868.89 C196.00,869.58 201.34,872.20 209.50,875.51 C214.86,877.68 226.32,880.89 234.00,882.36 C240.41,883.58 281.07,883.77 515.00,883.62 L 788.50 883.45 L 796.50 881.19 ZM 318.00 676.69 C318.00,676.25 317.55,676.16 317.00,676.50 C316.45,676.84 316.00,676.64 316.00,676.06 C316.00,675.48 315.18,675.00 314.17,675.00 C311.43,675.00 308.06,670.83 306.39,665.37 C305.10,661.15 304.91,640.76 304.98,512.73 C305.05,375.10 305.17,364.69 306.78,361.23 C309.16,356.07 312.84,352.54 317.41,351.03 C323.49,349.02 335.56,351.15 340.01,355.01 C341.27,356.10 342.87,357.00 343.57,357.00 C344.26,357.00 344.98,357.43 345.17,357.96 C345.54,359.04 352.61,363.20 358.25,365.67 C360.31,366.57 362.00,367.69 362.00,368.15 C362.00,368.62 362.67,369.00 363.50,369.00 C364.33,369.00 365.00,369.42 365.00,369.93 C365.00,370.45 365.99,371.18 367.20,371.56 C368.42,371.95 370.02,372.88 370.77,373.63 C371.53,374.38 372.79,375.00 373.57,375.00 C374.36,375.00 375.00,375.41 375.00,375.90 C375.00,376.40 376.24,377.32 377.75,377.94 C379.26,378.57 382.30,380.18 384.50,381.52 C386.70,382.86 389.55,384.41 390.83,384.98 C392.10,385.55 393.82,386.68 394.65,387.50 C395.47,388.33 396.79,389.00 397.57,389.00 C398.36,389.00 399.00,389.35 399.00,389.79 C399.00,390.22 401.57,391.90 404.72,393.54 C407.86,395.17 410.94,396.97 411.57,397.53 C412.20,398.10 414.91,399.68 417.61,401.03 C420.30,402.39 422.65,403.84 422.83,404.25 C423.02,404.66 423.74,405.00 424.43,405.00 C425.13,405.00 426.73,405.90 428.00,407.00 C429.27,408.10 430.91,409.00 431.65,409.00 C432.39,409.00 433.00,409.42 433.00,409.92 C433.00,410.43 434.58,411.36 436.50,412.00 C438.42,412.64 440.00,413.54 440.00,414.01 C440.00,414.48 440.99,415.18 442.20,415.56 C443.42,415.95 445.02,416.88 445.77,417.63 C446.53,418.38 447.79,419.00 448.57,419.00 C449.36,419.00 450.00,419.42 450.00,419.92 C450.00,420.43 451.58,421.36 453.50,422.00 C455.42,422.64 457.00,423.46 457.00,423.84 C457.00,424.56 459.68,426.12 464.25,428.04 C465.76,428.68 467.00,429.56 467.00,430.00 C467.00,430.44 468.24,431.30 469.75,431.91 C471.26,432.51 473.85,433.90 475.50,435.00 C477.15,436.10 479.74,437.49 481.25,438.09 C482.76,438.70 484.00,439.60 484.00,440.10 C484.00,440.59 484.61,441.00 485.35,441.00 C486.09,441.00 487.73,441.90 489.00,443.00 C490.27,444.10 491.91,445.00 492.65,445.00 C493.39,445.00 494.00,445.42 494.00,445.93 C494.00,446.45 495.01,447.18 496.25,447.57 C497.49,447.95 498.73,448.57 499.00,448.93 C499.27,449.29 502.09,450.88 505.25,452.46 C508.41,454.04 511.00,455.70 511.00,456.16 C511.00,456.62 511.64,457.00 512.43,457.00 C513.21,457.00 514.47,457.56 515.22,458.25 C517.25,460.11 520.17,461.93 523.25,463.26 C524.76,463.91 526.00,464.79 526.00,465.22 C526.00,465.65 526.64,466.00 527.43,466.00 C528.21,466.00 529.46,466.56 530.20,467.25 C530.95,467.94 533.68,469.58 536.28,470.89 C538.87,472.20 541.00,473.67 541.00,474.14 C541.00,474.61 541.61,475.00 542.35,475.00 C543.09,475.00 544.73,475.90 546.00,477.00 C547.27,478.10 548.84,479.00 549.50,479.00 C550.16,479.00 551.73,479.90 553.00,481.00 C554.27,482.10 555.91,483.00 556.65,483.00 C557.39,483.00 558.00,483.45 558.00,484.00 C558.00,484.55 558.45,485.00 559.01,485.00 C559.56,485.00 561.88,486.35 564.16,488.00 C566.44,489.65 568.91,491.00 569.65,491.00 C570.39,491.00 571.00,491.45 571.00,492.00 C571.00,492.55 571.39,493.00 571.86,493.00 C572.33,493.00 574.39,494.58 576.43,496.50 C578.47,498.42 579.80,500.00 579.38,500.00 C578.96,500.00 579.45,500.61 580.46,501.35 C581.48,502.09 581.99,503.21 581.59,503.85 C581.20,504.48 581.41,505.00 582.05,505.00 C582.69,505.00 582.96,505.66 582.65,506.47 C582.34,507.28 582.52,508.20 583.04,508.53 C584.36,509.34 584.26,516.00 582.93,516.00 C582.34,516.00 582.13,516.84 582.47,517.89 C582.81,518.97 582.42,520.43 581.58,521.28 C580.76,522.09 580.37,523.04 580.71,523.38 C581.05,523.72 580.86,524.00 580.28,524.00 C579.71,524.00 579.00,524.89 578.71,525.99 C578.43,527.08 577.02,528.42 575.60,528.96 C574.17,529.51 573.00,530.36 573.00,530.87 C573.00,531.37 571.88,532.07 570.50,532.41 C569.12,532.76 568.00,533.48 568.00,534.02 C568.00,534.56 567.36,535.00 566.57,535.00 C565.79,535.00 564.53,535.62 563.77,536.37 C563.02,537.12 561.42,538.05 560.20,538.44 C558.99,538.82 558.00,539.55 558.00,540.07 C558.00,540.58 557.33,541.00 556.50,541.00 C555.67,541.00 555.00,541.42 555.00,541.92 C555.00,542.43 553.42,543.36 551.50,544.00 C549.58,544.64 548.00,545.57 548.00,546.08 C548.00,546.58 547.33,547.00 546.50,547.00 C545.67,547.00 545.00,547.45 545.00,548.00 C545.00,548.55 544.36,549.00 543.57,549.00 C542.79,549.00 541.53,549.62 540.77,550.37 C540.02,551.12 538.42,552.05 537.20,552.44 C535.99,552.82 535.00,553.55 535.00,554.07 C535.00,554.58 534.33,555.00 533.50,555.00 C532.67,555.00 532.00,555.42 532.00,555.93 C532.00,556.45 531.01,557.18 529.80,557.56 C528.58,557.95 526.98,558.88 526.23,559.63 C525.47,560.38 524.26,561.00 523.54,561.00 C522.81,561.00 521.95,561.67 521.64,562.50 C521.32,563.33 520.15,564.00 519.03,564.00 C517.91,564.00 517.00,564.42 517.00,564.92 C517.00,565.43 515.42,566.36 513.50,567.00 C511.58,567.64 510.00,568.57 510.00,569.08 C510.00,569.58 509.33,570.00 508.50,570.00 C507.67,570.00 507.00,570.45 507.00,571.00 C507.00,571.55 506.36,572.00 505.57,572.00 C504.79,572.00 503.53,572.62 502.77,573.37 C502.02,574.12 500.42,575.05 499.20,575.44 C497.99,575.82 497.00,576.55 497.00,577.07 C497.00,577.58 496.32,578.00 495.49,578.00 C494.66,578.00 493.21,578.90 492.27,580.00 C491.33,581.10 489.80,582.00 488.88,582.00 C487.97,582.00 486.95,582.67 486.64,583.50 C486.32,584.33 485.20,585.00 484.14,585.00 C483.08,585.00 481.95,585.67 481.64,586.50 C481.32,587.33 480.15,588.00 479.03,588.00 C477.91,588.00 477.00,588.45 477.00,589.00 C477.00,589.55 476.39,590.00 475.65,590.00 C474.91,590.00 473.27,590.90 472.00,592.00 C470.73,593.10 469.09,594.00 468.35,594.00 C467.61,594.00 467.00,594.45 467.00,595.00 C467.00,595.55 466.39,596.00 465.65,596.00 C464.91,596.00 463.27,596.90 462.00,598.00 C460.73,599.10 459.09,600.00 458.35,600.00 C457.61,600.00 457.00,600.40 457.00,600.89 C457.00,601.38 455.88,602.07 454.50,602.41 C453.12,602.76 452.00,603.48 452.00,604.02 C452.00,604.56 451.36,605.00 450.57,605.00 C449.79,605.00 448.53,605.62 447.77,606.37 C447.02,607.12 445.42,608.05 444.20,608.44 C442.99,608.82 442.00,609.55 442.00,610.07 C442.00,610.58 441.36,611.00 440.57,611.00 C439.79,611.00 438.53,611.62 437.77,612.37 C437.02,613.12 435.42,614.05 434.20,614.44 C432.99,614.82 432.00,615.55 432.00,616.07 C432.00,616.58 431.36,617.00 430.57,617.00 C429.79,617.00 428.53,617.62 427.77,618.37 C427.02,619.12 425.42,620.05 424.20,620.44 C422.99,620.82 422.00,621.55 422.00,622.07 C422.00,622.58 421.36,623.00 420.57,623.00 C419.79,623.00 418.53,623.62 417.77,624.37 C417.02,625.12 415.42,626.05 414.20,626.44 C412.99,626.82 412.00,627.55 412.00,628.07 C412.00,628.58 411.33,629.00 410.50,629.00 C409.67,629.00 409.00,629.42 409.00,629.92 C409.00,630.43 407.42,631.36 405.50,632.00 C403.58,632.64 402.00,633.57 402.00,634.08 C402.00,634.58 401.33,635.00 400.50,635.00 C399.67,635.00 399.00,635.44 399.00,635.98 C399.00,636.52 397.91,637.24 396.57,637.57 C395.24,637.91 393.90,638.81 393.60,639.59 C393.31,640.37 392.15,641.00 391.03,641.00 C389.91,641.00 389.00,641.44 389.00,641.98 C389.00,642.52 387.88,643.24 386.50,643.59 C385.12,643.93 384.00,644.62 384.00,645.11 C384.00,645.60 383.39,646.00 382.65,646.00 C381.91,646.00 380.27,646.90 379.00,648.00 C377.73,649.10 376.09,650.00 375.35,650.00 C374.61,650.00 374.00,650.45 374.00,651.00 C374.00,651.55 373.33,652.00 372.50,652.00 C371.67,652.00 371.00,652.42 371.00,652.92 C371.00,653.43 369.42,654.36 367.50,655.00 C365.58,655.64 364.00,656.57 364.00,657.08 C364.00,657.58 363.33,658.00 362.50,658.00 C361.67,658.00 361.00,658.44 361.00,658.98 C361.00,659.52 359.91,660.24 358.57,660.57 C357.24,660.91 355.90,661.81 355.60,662.59 C355.31,663.37 354.20,664.00 353.14,664.00 C352.08,664.00 350.95,664.67 350.64,665.50 C350.32,666.33 349.20,667.00 348.14,667.00 C347.08,667.00 345.95,667.67 345.64,668.50 C345.32,669.33 344.15,670.00 343.03,670.00 C341.91,670.00 341.00,670.45 341.00,671.00 C341.00,671.55 340.36,672.00 339.57,672.00 C338.79,672.00 337.52,672.62 336.76,673.38 C336.01,674.14 333.95,675.07 332.19,675.46 C330.44,675.84 329.00,676.52 329.00,676.96 C329.00,677.40 326.53,677.70 323.50,677.63 C320.48,677.56 318.00,677.14 318.00,676.69 Z" fill="rgb(254,254,254)"/>
</g>
</svg>